<?xml version="1.0" standalone="no"?>
<svg width="567.429" height="407.891" viewBox="0 0 567.429 407.891" xmlns="http://www.w3.org/2000/svg" shape-rendering="crispEdges">
<title>
2022_HcalNeutralIso.svg
</title>
<desc>
Creator: ROOT Version 6.24/08
CreationDate: Mon Sep  9 12:00:11 2024</desc>
<defs>
</defs>
<rect x="0.5" y="0" width="566.929" height="407.391" fill="white"/>
<rect x="57.1929" y="40.7391" width="453.543" height="325.913" fill="white"/>
<rect x="57.1929" y="40.7391" width="453.543" height="325.913" fill="none" stroke="black"/>
<rect x="57.1929" y="40.7391" width="453.543" height="325.913" fill="white"/>
<rect x="57.1929" y="40.7391" width="453.543" height="325.913" fill="none" stroke="black"/>
<path d="M57.1929,112.976h 9.07087v -36.4234h 9.07087v -9.30896h 9.07087v 1.42713h 9.07087v 3.72644h 9.07087v 6.52499h 9.07087v 3.7368h 9.07087v 5.40094h 9.07087v 5.75914h 9.07087v 6.20514h 9.07087v 5.48816h 9.07087v 6.8102h 9.07087v 4.80602h
 9.07087v 3.47825h 9.07087v 7.21094h 9.07087v 9.28699h 9.07087v 4.34409h 9.07087v 6.13933h 9.07087v 4.58552h 9.07087v 9.59697h 9.07087v 4.84026h 9.07087v 3.98608h 9.07087v 6.67531h 9.07087v 6.82634h 9.07087v 6.24079h 9.07087v 7.91728h 9.07087v
 0.867048h 9.07087v 6.98125h 9.07087v 8.18809h 9.07087v 10.7547h 9.07087v -1.60558h 9.07087v 5.61291h 9.07087v 16.8156h 9.07087v 3.28201h 9.07087v -2.37049h 9.07087v 8.11797h 9.07087v 11.5589h 9.07087v 4.7h 9.07087v 6.25497h 9.07087v 12.2536h
 9.07087v 2.67656h 9.07087v 11.0193h 9.07087v -9.61334h 9.07087v 17.5368h 9.07087v 9.80358h 9.07087v 16.8156h 9.07087v -10.8808h 9.07087v 6.92811h 9.07087v -10.0015h 9.07087v 3.07343h 9.07087" fill="none" stroke="#0000ff"/>
<path d="M57.1929,366.652h 453.543" fill="none" stroke="black"/>
<path d="M57.1929,356.875v 9.77739" fill="none" stroke="black"/>
<path d="M72.311,361.763v 4.8887" fill="none" stroke="black"/>
<path d="M87.4291,361.763v 4.8887" fill="none" stroke="black"/>
<path d="M102.547,361.763v 4.8887" fill="none" stroke="black"/>
<path d="M117.665,356.875v 9.77739" fill="none" stroke="black"/>
<path d="M132.783,361.763v 4.8887" fill="none" stroke="black"/>
<path d="M147.902,361.763v 4.8887" fill="none" stroke="black"/>
<path d="M163.02,361.763v 4.8887" fill="none" stroke="black"/>
<path d="M178.138,356.875v 9.77739" fill="none" stroke="black"/>
<path d="M193.256,361.763v 4.8887" fill="none" stroke="black"/>
<path d="M208.374,361.763v 4.8887" fill="none" stroke="black"/>
<path d="M223.492,361.763v 4.8887" fill="none" stroke="black"/>
<path d="M238.61,356.875v 9.77739" fill="none" stroke="black"/>
<path d="M253.728,361.763v 4.8887" fill="none" stroke="black"/>
<path d="M268.846,361.763v 4.8887" fill="none" stroke="black"/>
<path d="M283.965,361.763v 4.8887" fill="none" stroke="black"/>
<path d="M299.083,356.875v 9.77739" fill="none" stroke="black"/>
<path d="M314.201,361.763v 4.8887" fill="none" stroke="black"/>
<path d="M329.319,361.763v 4.8887" fill="none" stroke="black"/>
<path d="M344.437,361.763v 4.8887" fill="none" stroke="black"/>
<path d="M359.555,356.875v 9.77739" fill="none" stroke="black"/>
<path d="M374.673,361.763v 4.8887" fill="none" stroke="black"/>
<path d="M389.791,361.763v 4.8887" fill="none" stroke="black"/>
<path d="M404.909,361.763v 4.8887" fill="none" stroke="black"/>
<path d="M420.028,356.875v 9.77739" fill="none" stroke="black"/>
<path d="M435.146,361.763v 4.8887" fill="none" stroke="black"/>
<path d="M450.264,361.763v 4.8887" fill="none" stroke="black"/>
<path d="M465.382,361.763v 4.8887" fill="none" stroke="black"/>
<path d="M480.5,356.875v 9.77739" fill="none" stroke="black"/>
<path d="M480.5,356.875v 9.77739" fill="none" stroke="black"/>
<path d="M495.618,361.763v 4.8887" fill="none" stroke="black"/>
<text xml:space="preserve" x="53.2045" y="379.615" fill="black" font-size="13.5814" font-family="Helvetica">0</text>
<text xml:space="preserve" x="113.743" y="379.615" fill="black" font-size="13.5814" font-family="Helvetica">2</text>
<text xml:space="preserve" x="174.282" y="379.615" fill="black" font-size="13.5814" font-family="Helvetica">4</text>
<text xml:space="preserve" x="234.821" y="379.615" fill="black" font-size="13.5814" font-family="Helvetica">6</text>
<text xml:space="preserve" x="295.36" y="379.615" fill="black" font-size="13.5814" font-family="Helvetica">8</text>
<text xml:space="preserve" x="351.626" y="379.615" fill="black" font-size="13.5814" font-family="Helvetica">10</text>
<text xml:space="preserve" x="412.165" y="379.615" fill="black" font-size="13.5814" font-family="Helvetica">12</text>
<text xml:space="preserve" x="471.991" y="379.615" fill="black" font-size="13.5814" font-family="Helvetica">14</text>
<text xml:space="preserve" x="462.02" y="393.859" fill="black" font-size="13.5814" font-family="Helvetica">Isolation</text>
<path d="M57.1929,366.652v -325.913" fill="none" stroke="black"/>
<path d="M63.9961,359.091h -6.80315" fill="none" stroke="black"/>
<path d="M63.9961,352.698h -6.80315" fill="none" stroke="black"/>
<path d="M63.9961,347.16h -6.80315" fill="none" stroke="black"/>
<path d="M63.9961,342.275h -6.80315" fill="none" stroke="black"/>
<path d="M70.7992,337.906h -13.6063" fill="none" stroke="black"/>
<text xml:space="preserve" x="37.5356" y="342.579" fill="black" font-size="13.5814" font-family="Helvetica">10</text>
<path d="M63.9961,309.159h -6.80315" fill="none" stroke="black"/>
<path d="M63.9961,292.344h -6.80315" fill="none" stroke="black"/>
<path d="M63.9961,280.413h -6.80315" fill="none" stroke="black"/>
<path d="M63.9961,271.159h -6.80315" fill="none" stroke="black"/>
<path d="M63.9961,263.598h -6.80315" fill="none" stroke="black"/>
<path d="M63.9961,257.204h -6.80315" fill="none" stroke="black"/>
<path d="M63.9961,251.667h -6.80315" fill="none" stroke="black"/>
<path d="M63.9961,246.782h -6.80315" fill="none" stroke="black"/>
<path d="M70.7992,242.412h -13.6063" fill="none" stroke="black"/>
<text xml:space="preserve" x="47.5067" y="242.156" fill="black" font-size="9.22091" font-family="Helvetica">2</text>
<text xml:space="preserve" x="32.55" y="248.566" fill="black" font-size="13.5814" font-family="Helvetica">10</text>
<path d="M63.9961,213.666h -6.80315" fill="none" stroke="black"/>
<path d="M63.9961,196.85h -6.80315" fill="none" stroke="black"/>
<path d="M63.9961,184.92h -6.80315" fill="none" stroke="black"/>
<path d="M63.9961,175.665h -6.80315" fill="none" stroke="black"/>
<path d="M63.9961,168.104h -6.80315" fill="none" stroke="black"/>
<path d="M63.9961,161.711h -6.80315" fill="none" stroke="black"/>
<path d="M63.9961,156.173h -6.80315" fill="none" stroke="black"/>
<path d="M63.9961,151.288h -6.80315" fill="none" stroke="black"/>
<path d="M70.7992,146.919h -13.6063" fill="none" stroke="black"/>
<text xml:space="preserve" x="47.5067" y="146.006" fill="black" font-size="9.22091" font-family="Helvetica">3</text>
<text xml:space="preserve" x="32.55" y="153.128" fill="black" font-size="13.5814" font-family="Helvetica">10</text>
<path d="M63.9961,118.173h -6.80315" fill="none" stroke="black"/>
<path d="M63.9961,101.357h -6.80315" fill="none" stroke="black"/>
<path d="M63.9961,89.4261h -6.80315" fill="none" stroke="black"/>
<path d="M63.9961,80.1718h -6.80315" fill="none" stroke="black"/>
<path d="M63.9961,72.6105h -6.80315" fill="none" stroke="black"/>
<path d="M63.9961,66.2176h -6.80315" fill="none" stroke="black"/>
<path d="M63.9961,60.6797h -6.80315" fill="none" stroke="black"/>
<path d="M63.9961,55.795h -6.80315" fill="none" stroke="black"/>
<path d="M70.7992,51.4254h -13.6063" fill="none" stroke="black"/>
<text xml:space="preserve" x="47.5067" y="51.28" fill="black" font-size="9.22091" font-family="Helvetica">4</text>
<text xml:space="preserve" x="32.55" y="57.69" fill="black" font-size="13.5814" font-family="Helvetica">10</text>
<g transform="rotate(-90,20.4422,110.394)">
<text xml:space="preserve" x="20.4422" y="110.394" fill="black" font-size="13.5814" font-family="Helvetica">Events (log)</text>
</g>
<path d="M57.1929,40.7391h 9.07087v 18.6895h 9.07087v 13.6685h 9.07087v 5.27294h 9.07087v 5.16963h 9.07087v 6.74532h 9.07087v 5.96649h 9.07087v 4.96732h 9.07087v 8.91124h 9.07087v 3.92029h 9.07087v 6.68816h 9.07087v 5.21139h 9.07087v 6.0484h 9.07087v
 8.90843h 9.07087v 7.10461h 9.07087v 6.38588h 9.07087v 4.12194h 9.07087v 9.93178h 9.07087v 5.58767h 9.07087v 5.0846h 9.07087v 7.48923h 9.07087v 5.16921h 9.07087v 8.07832h 9.07087v 1.82325h 9.07087v 10.1572h 9.07087v 5.96526h 9.07087v 1.63574h
 9.07087v 13.7166h 9.07087v 8.43301h 9.07087v 4.73254h 9.07087v 2.82875h 9.07087v 11.7685h 9.07087v -9.76946h 9.07087v 31.3888h 9.07087v 2.24229h 9.07087v -2.24229h 9.07087v 9.80358h 9.07087v 4.36954h 9.07087v 1.56518h 9.07087v 10.8808h 9.07087v
 14.7921h 9.07087v 3.07343h 9.07087v -3.07343h 18.1417v 23.2085h 9.07087v -4.88473h 9.07087v 10.4226h 9.07087v -10.4226h 18.1417v 24.3769h 9.07087" fill="none" stroke="#ff0000"/>
<path d="M57.1929,227.87h 9.07087v -93.9765h 9.07087v -45.4203h 9.07087v -18.2137h 9.07087v -3.34868h 9.07087v 2.16405h 9.07087v 5.42376h 9.07087v 4.87659h 9.07087v 6.78265h 9.07087v 3.81115h 9.07087v 7.14738h 9.07087v 6.5284h 9.07087v 6.53688h
 9.07087v 6.00714h 9.07087v 5.39689h 9.07087v 6.73208h 9.07087v 6.40181h 9.07087v 8.0212h 9.07087v 4.80512h 9.07087v 7.15071h 9.07087v 4.20866h 9.07087v 8.4455h 9.07087v 7.25023h 9.07087v 6.74479h 9.07087v 4.94422h 9.07087v 3.11466h 9.07087v 5.81936h
 9.07087v 7.24349h 9.07087v 7.24591h 9.07087v 8.09251h 9.07087v 3.33865h 9.07087v 7.31369h 9.07087v 10.3803h 9.07087v 2.34811h 9.07087v 2.48908h 9.07087v 8.51273h 9.07087v 11.4092h 9.07087v -2.02344h 9.07087v 14.8863h 9.07087v 2.92867h 9.07087v
 7.76409h 9.07087v 3.83093h 9.07087v 16.152h 9.07087v -11.9308h 9.07087v 25.8851h 9.07087v 2.86129h 9.07087v -10.4226h 9.07087v 16.8156h 9.07087v 11.9308h 9.07087v 10.4226h 9.07087" fill="none" stroke="#00ff00"/>
<rect x="340.657" y="81.4783" width="113.386" height="40.7391" fill="white"/>
<text xml:space="preserve" x="368.719" y="91.1645" fill="black" font-size="15.4501" font-family="Helvetica">Local Iso</text>
<path d="M344.909,88.2681h 19.8425" fill="none" stroke="#0000ff"/>
<text xml:space="preserve" x="368.719" y="104.697" fill="black" font-size="15.4501" font-family="Helvetica">Local Iso Threshold</text>
<path d="M344.909,101.848h 19.8425" fill="none" stroke="#ff0000"/>
<text xml:space="preserve" x="368.719" y="118.229" fill="black" font-size="15.4501" font-family="Helvetica">Aod Iso</text>
<path d="M344.909,115.428h 19.8425" fill="none" stroke="#00ff00"/>
<text xml:space="preserve" x="221.289" y="19.9422" fill="black" font-size="17.973" font-family="Helvetica">Neutral Isolation</text></svg>
