<?xml version="1.0" standalone="no"?>
<svg width="567.429" height="407.891" viewBox="0 0 567.429 407.891" xmlns="http://www.w3.org/2000/svg" shape-rendering="crispEdges">
<title>
2024_reducedEgamma.svg
</title>
<desc>
Creator: ROOT Version 6.24/08
CreationDate: Sun Sep 15 21:43:32 2024</desc>
<defs>
</defs>
<rect x="0.5" y="0" width="566.929" height="407.391" fill="white"/>
<rect x="57.1929" y="40.7391" width="453.543" height="325.913" fill="white"/>
<rect x="57.1929" y="40.7391" width="453.543" height="325.913" fill="none" stroke="black"/>
<rect x="57.1929" y="40.7391" width="453.543" height="325.913" fill="white"/>
<rect x="57.1929" y="40.7391" width="453.543" height="325.913" fill="none" stroke="black"/>
<path d="M57.1929,245.605h 9.07087v -64.0912h 9.07087v -44.5741h 9.07087v -32.2304h 9.07087v -22.4152h 9.07087v -14.6433h 9.07087v -8.73289h 9.07087v -4.11833h 9.07087v -1.00341h 9.07087v 1.25962h 9.07087v 2.85213h 9.07087v 3.86579h 9.07087v 4.31213h
 9.07087v 5.1879h 9.07087v 5.61773h 9.07087v 5.81469h 9.07087v 6.00857h 9.07087v 6.34705h 9.07087v 6.32655h 9.07087v 6.69645h 9.07087v 6.76402h 9.07087v 7.60268h 9.07087v 6.89611h 9.07087v 7.217h 9.07087v 6.98146h 9.07087v 7.53681h 9.07087v 7.70715h
 9.07087v 7.3082h 9.07087v 7.79371h 9.07087v 7.75894h 9.07087v 7.82968h 9.07087v 7.90628h 9.07087v 8.2672h 9.07087v 7.11423h 9.07087v 8.70111h 9.07087v 7.0364h 9.07087v 8.65784h 9.07087v 7.08346h 9.07087v 8.85935h 9.07087v 7.46181h 9.07087v 8.58329h
 9.07087v 8.05086h 9.07087v 4.9244h 9.07087v 9.31271h 9.07087v 8.9882h 9.07087v 10.7539h 9.07087v 4.39142h 9.07087v 9.47771h 9.07087v 7.78549h 9.07087v 7.07429h 9.07087" fill="none" stroke="#0000ff"/>
<path d="M57.1929,366.652h 453.543" fill="none" stroke="black"/>
<path d="M57.1929,356.875v 9.77739" fill="none" stroke="black"/>
<path d="M72.311,361.763v 4.8887" fill="none" stroke="black"/>
<path d="M87.4291,361.763v 4.8887" fill="none" stroke="black"/>
<path d="M102.547,361.763v 4.8887" fill="none" stroke="black"/>
<path d="M117.665,356.875v 9.77739" fill="none" stroke="black"/>
<path d="M132.783,361.763v 4.8887" fill="none" stroke="black"/>
<path d="M147.902,361.763v 4.8887" fill="none" stroke="black"/>
<path d="M163.02,361.763v 4.8887" fill="none" stroke="black"/>
<path d="M178.138,356.875v 9.77739" fill="none" stroke="black"/>
<path d="M193.256,361.763v 4.8887" fill="none" stroke="black"/>
<path d="M208.374,361.763v 4.8887" fill="none" stroke="black"/>
<path d="M223.492,361.763v 4.8887" fill="none" stroke="black"/>
<path d="M238.61,356.875v 9.77739" fill="none" stroke="black"/>
<path d="M253.728,361.763v 4.8887" fill="none" stroke="black"/>
<path d="M268.846,361.763v 4.8887" fill="none" stroke="black"/>
<path d="M283.965,361.763v 4.8887" fill="none" stroke="black"/>
<path d="M299.083,356.875v 9.77739" fill="none" stroke="black"/>
<path d="M314.201,361.763v 4.8887" fill="none" stroke="black"/>
<path d="M329.319,361.763v 4.8887" fill="none" stroke="black"/>
<path d="M344.437,361.763v 4.8887" fill="none" stroke="black"/>
<path d="M359.555,356.875v 9.77739" fill="none" stroke="black"/>
<path d="M374.673,361.763v 4.8887" fill="none" stroke="black"/>
<path d="M389.791,361.763v 4.8887" fill="none" stroke="black"/>
<path d="M404.909,361.763v 4.8887" fill="none" stroke="black"/>
<path d="M420.028,356.875v 9.77739" fill="none" stroke="black"/>
<path d="M435.146,361.763v 4.8887" fill="none" stroke="black"/>
<path d="M450.264,361.763v 4.8887" fill="none" stroke="black"/>
<path d="M465.382,361.763v 4.8887" fill="none" stroke="black"/>
<path d="M480.5,356.875v 9.77739" fill="none" stroke="black"/>
<path d="M480.5,356.875v 9.77739" fill="none" stroke="black"/>
<path d="M495.618,361.763v 4.8887" fill="none" stroke="black"/>
<text xml:space="preserve" x="53.2045" y="379.615" fill="black" font-size="13.5814" font-family="Helvetica">0</text>
<text xml:space="preserve" x="113.743" y="379.615" fill="black" font-size="13.5814" font-family="Helvetica">2</text>
<text xml:space="preserve" x="174.282" y="379.615" fill="black" font-size="13.5814" font-family="Helvetica">4</text>
<text xml:space="preserve" x="234.821" y="379.615" fill="black" font-size="13.5814" font-family="Helvetica">6</text>
<text xml:space="preserve" x="295.36" y="379.615" fill="black" font-size="13.5814" font-family="Helvetica">8</text>
<text xml:space="preserve" x="351.626" y="379.615" fill="black" font-size="13.5814" font-family="Helvetica">10</text>
<text xml:space="preserve" x="412.165" y="379.615" fill="black" font-size="13.5814" font-family="Helvetica">12</text>
<text xml:space="preserve" x="471.991" y="379.615" fill="black" font-size="13.5814" font-family="Helvetica">14</text>
<text xml:space="preserve" x="462.02" y="393.859" fill="black" font-size="13.5814" font-family="Helvetica">Isolation</text>
<path d="M57.1929,366.652v -325.913" fill="none" stroke="black"/>
<path d="M63.9961,366.202h -6.80315" fill="none" stroke="black"/>
<path d="M63.9961,359.168h -6.80315" fill="none" stroke="black"/>
<path d="M63.9961,353.221h -6.80315" fill="none" stroke="black"/>
<path d="M63.9961,348.069h -6.80315" fill="none" stroke="black"/>
<path d="M63.9961,343.525h -6.80315" fill="none" stroke="black"/>
<path d="M70.7992,339.46h -13.6063" fill="none" stroke="black"/>
<text xml:space="preserve" x="47.5067" y="339.018" fill="black" font-size="9.22091" font-family="Helvetica">2</text>
<text xml:space="preserve" x="32.55" y="345.428" fill="black" font-size="13.5814" font-family="Helvetica">10</text>
<path d="M63.9961,312.718h -6.80315" fill="none" stroke="black"/>
<path d="M63.9961,297.075h -6.80315" fill="none" stroke="black"/>
<path d="M63.9961,285.976h -6.80315" fill="none" stroke="black"/>
<path d="M63.9961,277.367h -6.80315" fill="none" stroke="black"/>
<path d="M63.9961,270.333h -6.80315" fill="none" stroke="black"/>
<path d="M63.9961,264.386h -6.80315" fill="none" stroke="black"/>
<path d="M63.9961,259.234h -6.80315" fill="none" stroke="black"/>
<path d="M63.9961,254.69h -6.80315" fill="none" stroke="black"/>
<path d="M70.7992,250.626h -13.6063" fill="none" stroke="black"/>
<text xml:space="preserve" x="47.5067" y="249.278" fill="black" font-size="9.22091" font-family="Helvetica">3</text>
<text xml:space="preserve" x="32.55" y="256.4" fill="black" font-size="13.5814" font-family="Helvetica">10</text>
<path d="M63.9961,223.884h -6.80315" fill="none" stroke="black"/>
<path d="M63.9961,208.241h -6.80315" fill="none" stroke="black"/>
<path d="M63.9961,197.142h -6.80315" fill="none" stroke="black"/>
<path d="M63.9961,188.533h -6.80315" fill="none" stroke="black"/>
<path d="M63.9961,181.499h -6.80315" fill="none" stroke="black"/>
<path d="M63.9961,175.552h -6.80315" fill="none" stroke="black"/>
<path d="M63.9961,170.4h -6.80315" fill="none" stroke="black"/>
<path d="M63.9961,165.856h -6.80315" fill="none" stroke="black"/>
<path d="M70.7992,161.791h -13.6063" fill="none" stroke="black"/>
<text xml:space="preserve" x="47.5067" y="161.675" fill="black" font-size="9.22091" font-family="Helvetica">4</text>
<text xml:space="preserve" x="32.55" y="168.085" fill="black" font-size="13.5814" font-family="Helvetica">10</text>
<path d="M63.9961,135.049h -6.80315" fill="none" stroke="black"/>
<path d="M63.9961,119.406h -6.80315" fill="none" stroke="black"/>
<path d="M63.9961,108.307h -6.80315" fill="none" stroke="black"/>
<path d="M63.9961,99.6982h -6.80315" fill="none" stroke="black"/>
<path d="M63.9961,92.6642h -6.80315" fill="none" stroke="black"/>
<path d="M63.9961,86.717h -6.80315" fill="none" stroke="black"/>
<path d="M63.9961,81.5653h -6.80315" fill="none" stroke="black"/>
<path d="M63.9961,77.0212h -6.80315" fill="none" stroke="black"/>
<path d="M70.7992,72.9564h -13.6063" fill="none" stroke="black"/>
<text xml:space="preserve" x="47.5067" y="71.9345" fill="black" font-size="9.22091" font-family="Helvetica">5</text>
<text xml:space="preserve" x="32.55" y="79.0567" fill="black" font-size="13.5814" font-family="Helvetica">10</text>
<path d="M63.9961,46.2145h -6.80315" fill="none" stroke="black"/>
<g transform="rotate(-90,20.4422,110.394)">
<text xml:space="preserve" x="20.4422" y="110.394" fill="black" font-size="13.5814" font-family="Helvetica">Events (log)</text>
</g>
<path d="M57.1929,205.749h 9.07087v -62.2933h 9.07087v -41.8765h 9.07087v -26.6847h 9.07087v -16.2686h 9.07087v -8.07875h 9.07087v -2.77362h 9.07087v 0.903642h 9.07087v 3.24314h 9.07087v 4.65156h 9.07087v 5.57003h 9.07087v 6.19112h 9.07087v 6.62687h
 9.07087v 6.71933h 9.07087v 7.27081h 9.07087v 7.6367h 9.07087v 7.5092h 9.07087v 7.75633h 9.07087v 7.03714h 9.07087v 8.67303h 9.07087v 7.93462h 9.07087v 8.28191h 9.07087v 8.49414h 9.07087v 8.1818h 9.07087v 8.02518h 9.07087v 8.79983h 9.07087v 9.22184h
 9.07087v 8.38415h 9.07087v 8.61522h 9.07087v 7.91085h 9.07087v 8.01728h 9.07087v 9.61516h 9.07087v 9.23623h 9.07087v 7.92271h 9.07087v 7.90798h 9.07087v 7.55252h 9.07087v 12.6368h 9.07087v 4.67005h 9.07087v 10.3139h 9.07087v 8.99071h 9.07087v
 8.19283h 9.07087v 8.06868h 9.07087v 8.80019h 9.07087v 8.37212h 9.07087v 8.1611h 9.07087v 9.09263h 9.07087v 7.38356h 9.07087v 7.09981h 9.07087v 3.2063h 18.1417" fill="none" stroke="#ff0000"/>
<path d="M57.1929,366.652h 9.07087v -113.287h 9.07087v -65.114h 9.07087v -45.1386h 9.07087v -33.1224h 9.07087v -23.4532h 9.07087v -15.9638h 9.07087v -9.55344h 9.07087v -5.45135h 9.07087v -1.72971h 9.07087v 0.722518h 9.07087v 2.44811h 9.07087v
 3.50695h 9.07087v 4.37218h 9.07087v 4.76183h 9.07087v 5.71383h 9.07087v 5.8495h 9.07087v 6.16215h 9.07087v 5.79771h 9.07087v 7.19691h 9.07087v 6.4932h 9.07087v 6.9347h 9.07087v 7.34575h 9.07087v 7.1336h 9.07087v 7.17813h 9.07087v 7.14813h 9.07087v
 7.87653h 9.07087v 7.57585h 9.07087v 7.26345h 9.07087v 8.47517h 9.07087v 7.13148h 9.07087v 8.08149h 9.07087v 8.17752h 9.07087v 7.96894h 9.07087v 7.99155h 9.07087v 7.30136h 9.07087v 8.80082h 9.07087v 6.85986h 9.07087v 8.61264h 9.07087v 7.17369h
 9.07087v 10.3759h 9.07087v 6.78892h 9.07087v 6.82932h 9.07087v 8.68156h 9.07087v 4.8792h 9.07087v 11.454h 9.07087v 8.7462h 9.07087v 5.96044h 9.07087v 7.71646h 9.07087v 12.7079h 9.07087" fill="none" stroke="#00ff00"/>
<text xml:space="preserve" x="283.965" y="50.5678" fill="black" font-size="15.4501" font-family="Helvetica">Hcal Tower Isolation dR03</text>
<path d="M235.776,47.529h 39.685" fill="none" stroke="#0000ff"/>
<text xml:space="preserve" x="283.965" y="64.1" fill="black" font-size="15.4501" font-family="Helvetica">Hcal Tower Isolation dR028</text>
<path d="M235.776,61.1087h 39.685" fill="none" stroke="#ff0000"/>
<text xml:space="preserve" x="283.965" y="77.6323" fill="black" font-size="15.4501" font-family="Helvetica">Stored Hcal Tower Isolation</text>
<path d="M235.776,74.6884h 39.685" fill="none" stroke="#00ff00"/>
<text xml:space="preserve" x="209.181" y="19.9422" fill="black" font-size="19.828" font-family="Helvetica">reducedEgamma</text></svg>
