<?xml version="1.0" standalone="no"?>
<svg width="567.429" height="407.891" viewBox="0 0 567.429 407.891" xmlns="http://www.w3.org/2000/svg" shape-rendering="crispEdges">
<title>
HcalNeutralIso.svg
</title>
<desc>
Creator: ROOT Version 6.24/06
CreationDate: Mon Apr 15 11:14:55 2024</desc>
<defs>
</defs>
<rect x="0.5" y="0" width="566.929" height="407.391" fill="white"/>
<rect x="57.1929" y="40.7391" width="453.543" height="325.913" fill="white"/>
<rect x="57.1929" y="40.7391" width="453.543" height="325.913" fill="none" stroke="black"/>
<rect x="57.1929" y="40.7391" width="453.543" height="325.913" fill="white"/>
<rect x="57.1929" y="40.7391" width="453.543" height="325.913" fill="none" stroke="black"/>
<path d="M57.1929,85.6746h 2.51969v 4.12565h 2.51969v -4.84942h 2.51969v -5.23453h 2.51969v -1.67004h 2.51969v -1.95968h 2.51969v -0.917757h 2.51969v 0.11801h 2.51969v -0.985939h 2.51969v 0.649512h 2.51969v -1.76195h 2.51969v -0.434843h 2.51969v
 -0.208011h 2.51969v -0.254816h 2.51969v 0.881496h 2.51969v 0.291942h 2.51969v 0.40836h 2.51969v 1.36364h 2.51969v -1.36364h 2.51969v 0.660485h 2.51969v 1.86326h 2.51969v 1.0644h 2.51969v -1.40845h 2.51969v 1.79803h 2.51969v 0.788511h 2.51969v
 0.764603h 2.51969v 1.73641h 2.51969v -0.0189996h 2.51969v 0.920331h 2.51969v 0.584043h 2.51969v 2.75862h 2.51969v -1.56939h 2.51969v 4.4474h 2.51969v 1.38015h 2.51969v -0.382283h 2.51969v 1.82536h 2.51969v 2.38091h 2.51969v 0.146573h 2.51969v
 -0.024459h 2.51969v 3.75854h 2.51969v 0.878549h 2.51969v 1.30646h 2.51969v 1.34198h 2.51969v -0.197991h 2.51969v 1.9578h 2.51969v 1.67272h 2.51969v -0.302887h 2.51969v 2.85925h 2.51969v 0.0960827h 2.51969v 3.62423h 2.51969v 0.940419h 2.51969v
 2.26658h 2.51969v -0.476305h 2.51969v 3.23981h 2.51969v -0.465032h 2.51969v 1.52765h 2.51969v 0.842589h 2.51969v 3.17551h 2.51969v 1.71244h 2.51969v 1.03847h 2.51969v -1.79223h 2.51969v 2.34284h 2.51969v 5.66528h 2.51969v 1.3642h 2.51969v 2.1197h
 2.51969v 0.614694h 2.51969v -1.65874h 2.51969v 6.19024h 2.51969v -4.19296h 2.51969v 4.31639h 2.51969v 0.872733h 2.51969v 1.66289h 2.51969v 1.05187h 2.51969v 0.871464h 2.51969v 2.00131h 2.51969v 5.42916h 2.51969v -0.702517h 2.51969v 3.95175h 2.51969v
 -1.57007h 2.51969v 8.01886h 2.51969v -4.47884h 2.51969v 1.23875h 2.51969v 4.4018h 2.51969v 1.08946h 2.51969v -1.38246h 2.51969v 8.36276h 2.51969v -3.12859h 2.51969v 1.31662h 2.51969v 1.81196h 2.51969v 2.24182h 2.51969v 1.97016h 2.51969v -4.44214h
 2.51969v 7.15336h 2.51969v 4.73206h 2.51969v -2.4227h 2.51969v 3.45591h 2.51969v 1.97813h 2.51969v 3.87418h 2.51969v 1.18971h 2.51969v 1.75091h 2.51969v -2.60362h 2.51969v 1.19796h 2.51969v 5.10556h 2.51969v -2.06916h 2.51969v 1.68644h 2.51969v
 1.94397h 2.51969v 1.00146h 2.51969v 1.0222h 2.51969v 2.54325h 2.51969v 2.22427h 2.51969v 6.82055h 2.51969v -3.77057h 2.51969v 9.29258h 2.51969v -0.868711h 2.51969v 3.57051h 2.51969v -4.4242h 2.51969v 5.67415h 2.51969v -5.10667h 2.51969v 2.63763h
 2.51969v 1.84011h 2.51969v 5.27119h 2.51969v 7.90108h 2.51969v -1.20913h 2.51969v 2.03199h 5.03937v -3.59944h 2.51969v -0.384208h 2.51969v 2.75445h 2.51969v 3.34843h 2.51969v 0.434985h 2.51969v 11.7873h 2.51969v -4.24955h 2.51969v 7.10413h 2.51969v
 -8.11172h 2.51969v 3.08666h 2.51969v 0.53374h 2.51969v 4.49132h 2.51969v -1.73248h 2.51969v 12.8963h 2.51969v -10.5726h 2.51969v 21.2222h 2.51969v -26.8386h 2.51969v 26.8386h 2.51969v -12.1018h 2.51969v 6.08406h 2.51969v 3.34843h 2.51969v 9.52375h
 2.51969v -5.93158h 2.51969v 3.87418h 2.51969v 5.31378h 2.51969v -4.29579h 2.51969v 10.2513h 2.51969v -11.2692h 2.51969v 4.20428h 2.51969v -3.1863h 2.51969v 11.5337h 2.51969v -10.4943h 2.51969v 5.55309h 2.51969v -5.55309h 2.51969v 10.4943h 2.51969v
 -15.4854h 2.51969v 20.9767h 2.51969v 4.56052h 2.51969v -1.56745h 2.51969v 23.2043h 2.51969v -14.8163h 2.51969v -8.388h 2.51969v 8.388h 2.51969v 1.86326h 2.51969v -8.68381h 2.51969v 16.9314h 2.51969v 2.29672h 5.03937v 4.94117h 2.51969v -13.5491h
 2.51969v 11.0167h 2.51969v 2.53238h 2.51969v 8.48433h 2.51969v -27.6285h 2.51969v 19.1442h 2.51969" fill="none" stroke="#0000ff"/>
<path d="M57.1929,366.652h 453.543" fill="none" stroke="black"/>
<path d="M57.1929,356.875v 9.77739" fill="none" stroke="black"/>
<path d="M72.311,361.763v 4.8887" fill="none" stroke="black"/>
<path d="M87.4291,361.763v 4.8887" fill="none" stroke="black"/>
<path d="M102.547,361.763v 4.8887" fill="none" stroke="black"/>
<path d="M117.665,356.875v 9.77739" fill="none" stroke="black"/>
<path d="M132.783,361.763v 4.8887" fill="none" stroke="black"/>
<path d="M147.902,361.763v 4.8887" fill="none" stroke="black"/>
<path d="M163.02,361.763v 4.8887" fill="none" stroke="black"/>
<path d="M178.138,356.875v 9.77739" fill="none" stroke="black"/>
<path d="M193.256,361.763v 4.8887" fill="none" stroke="black"/>
<path d="M208.374,361.763v 4.8887" fill="none" stroke="black"/>
<path d="M223.492,361.763v 4.8887" fill="none" stroke="black"/>
<path d="M238.61,356.875v 9.77739" fill="none" stroke="black"/>
<path d="M253.728,361.763v 4.8887" fill="none" stroke="black"/>
<path d="M268.846,361.763v 4.8887" fill="none" stroke="black"/>
<path d="M283.965,361.763v 4.8887" fill="none" stroke="black"/>
<path d="M299.083,356.875v 9.77739" fill="none" stroke="black"/>
<path d="M314.201,361.763v 4.8887" fill="none" stroke="black"/>
<path d="M329.319,361.763v 4.8887" fill="none" stroke="black"/>
<path d="M344.437,361.763v 4.8887" fill="none" stroke="black"/>
<path d="M359.555,356.875v 9.77739" fill="none" stroke="black"/>
<path d="M374.673,361.763v 4.8887" fill="none" stroke="black"/>
<path d="M389.791,361.763v 4.8887" fill="none" stroke="black"/>
<path d="M404.909,361.763v 4.8887" fill="none" stroke="black"/>
<path d="M420.028,356.875v 9.77739" fill="none" stroke="black"/>
<path d="M435.146,361.763v 4.8887" fill="none" stroke="black"/>
<path d="M450.264,361.763v 4.8887" fill="none" stroke="black"/>
<path d="M465.382,361.763v 4.8887" fill="none" stroke="black"/>
<path d="M480.5,356.875v 9.77739" fill="none" stroke="black"/>
<path d="M480.5,356.875v 9.77739" fill="none" stroke="black"/>
<path d="M495.618,361.763v 4.8887" fill="none" stroke="black"/>
<text xml:space="preserve" x="53.2045" y="379.615" fill="black" font-size="13.5814" font-family="Helvetica">0</text>
<text xml:space="preserve" x="113.743" y="379.615" fill="black" font-size="13.5814" font-family="Helvetica">2</text>
<text xml:space="preserve" x="174.282" y="379.615" fill="black" font-size="13.5814" font-family="Helvetica">4</text>
<text xml:space="preserve" x="234.821" y="379.615" fill="black" font-size="13.5814" font-family="Helvetica">6</text>
<text xml:space="preserve" x="295.36" y="379.615" fill="black" font-size="13.5814" font-family="Helvetica">8</text>
<text xml:space="preserve" x="351.626" y="379.615" fill="black" font-size="13.5814" font-family="Helvetica">10</text>
<text xml:space="preserve" x="412.165" y="379.615" fill="black" font-size="13.5814" font-family="Helvetica">12</text>
<text xml:space="preserve" x="471.991" y="379.615" fill="black" font-size="13.5814" font-family="Helvetica">14</text>
<text xml:space="preserve" x="462.02" y="393.859" fill="black" font-size="13.5814" font-family="Helvetica">Isolation</text>
<path d="M57.1929,366.652v -325.913" fill="none" stroke="black"/>
<path d="M63.9961,360.837h -6.80315" fill="none" stroke="black"/>
<path d="M70.7992,355.636h -13.6063" fill="none" stroke="black"/>
<text xml:space="preserve" x="37.5356" y="360.385" fill="black" font-size="13.5814" font-family="Helvetica">10</text>
<path d="M63.9961,321.415h -6.80315" fill="none" stroke="black"/>
<path d="M63.9961,301.397h -6.80315" fill="none" stroke="black"/>
<path d="M63.9961,287.194h -6.80315" fill="none" stroke="black"/>
<path d="M63.9961,276.177h -6.80315" fill="none" stroke="black"/>
<path d="M63.9961,267.175h -6.80315" fill="none" stroke="black"/>
<path d="M63.9961,259.565h -6.80315" fill="none" stroke="black"/>
<path d="M63.9961,252.972h -6.80315" fill="none" stroke="black"/>
<path d="M63.9961,247.157h -6.80315" fill="none" stroke="black"/>
<path d="M70.7992,241.956h -13.6063" fill="none" stroke="black"/>
<text xml:space="preserve" x="47.5067" y="241.443" fill="black" font-size="9.22091" font-family="Helvetica">2</text>
<text xml:space="preserve" x="32.55" y="247.853" fill="black" font-size="13.5814" font-family="Helvetica">10</text>
<path d="M63.9961,207.735h -6.80315" fill="none" stroke="black"/>
<path d="M63.9961,187.717h -6.80315" fill="none" stroke="black"/>
<path d="M63.9961,173.514h -6.80315" fill="none" stroke="black"/>
<path d="M63.9961,162.497h -6.80315" fill="none" stroke="black"/>
<path d="M63.9961,153.496h -6.80315" fill="none" stroke="black"/>
<path d="M63.9961,145.885h -6.80315" fill="none" stroke="black"/>
<path d="M63.9961,139.293h -6.80315" fill="none" stroke="black"/>
<path d="M63.9961,133.478h -6.80315" fill="none" stroke="black"/>
<path d="M70.7992,128.276h -13.6063" fill="none" stroke="black"/>
<text xml:space="preserve" x="47.5067" y="127.488" fill="black" font-size="9.22091" font-family="Helvetica">3</text>
<text xml:space="preserve" x="32.55" y="134.61" fill="black" font-size="13.5814" font-family="Helvetica">10</text>
<path d="M63.9961,94.0549h -6.80315" fill="none" stroke="black"/>
<path d="M63.9961,74.0369h -6.80315" fill="none" stroke="black"/>
<path d="M63.9961,59.8339h -6.80315" fill="none" stroke="black"/>
<path d="M63.9961,48.8172h -6.80315" fill="none" stroke="black"/>
<g transform="rotate(-90,20.4422,110.394)">
<text xml:space="preserve" x="20.4422" y="110.394" fill="black" font-size="13.5814" font-family="Helvetica">Events (log)</text>
</g>
<path d="M57.1929,85.6746h 2.51969v 4.12565h 2.51969v -4.84942h 2.51969v -5.23453h 2.51969v -1.67004h 2.51969v -1.95968h 2.51969v -0.917757h 2.51969v 0.11801h 2.51969v -0.985939h 2.51969v 0.649512h 2.51969v -1.76195h 2.51969v -0.434843h 2.51969v
 -0.208011h 2.51969v -0.254816h 2.51969v 0.881496h 2.51969v 0.291942h 2.51969v 0.40836h 2.51969v 1.36364h 2.51969v -1.36364h 2.51969v 0.660485h 2.51969v 1.86326h 2.51969v 1.0644h 2.51969v -1.40845h 2.51969v 1.79803h 2.51969v 0.788511h 2.51969v
 0.764603h 2.51969v 1.73641h 2.51969v -0.0189996h 2.51969v 0.920331h 2.51969v 0.584043h 2.51969v 2.75862h 2.51969v -1.56939h 2.51969v 4.4474h 2.51969v 1.38015h 2.51969v -0.382283h 2.51969v 1.82536h 2.51969v 2.38091h 2.51969v 0.146573h 2.51969v
 -0.024459h 2.51969v 3.75854h 2.51969v 0.878549h 2.51969v 1.30646h 2.51969v 1.34198h 2.51969v -0.197991h 2.51969v 1.9578h 2.51969v 1.67272h 2.51969v -0.302887h 2.51969v 2.85925h 2.51969v 0.0960827h 2.51969v 3.62423h 2.51969v 0.940419h 2.51969v
 2.26658h 2.51969v -0.476305h 2.51969v 3.23981h 2.51969v -0.465032h 2.51969v 1.52765h 2.51969v 0.842589h 2.51969v 3.17551h 2.51969v 1.71244h 2.51969v 1.03847h 2.51969v -1.79223h 2.51969v 2.34284h 2.51969v 5.66528h 2.51969v 1.3642h 2.51969v 2.1197h
 2.51969v 0.614694h 2.51969v -1.65874h 2.51969v 6.19024h 2.51969v -4.19296h 2.51969v 4.31639h 2.51969v 0.872733h 2.51969v 1.66289h 2.51969v 1.05187h 2.51969v 0.871464h 2.51969v 2.00131h 2.51969v 5.42916h 2.51969v -0.702517h 2.51969v 3.95175h 2.51969v
 -1.57007h 2.51969v 8.01886h 2.51969v -4.47884h 2.51969v 1.23875h 2.51969v 4.4018h 2.51969v 1.08946h 2.51969v -1.38246h 2.51969v 8.36276h 2.51969v -3.12859h 2.51969v 1.31662h 2.51969v 1.81196h 2.51969v 2.24182h 2.51969v 1.97016h 2.51969v -4.44214h
 2.51969v 7.15336h 2.51969v 4.73206h 2.51969v -2.4227h 2.51969v 3.45591h 2.51969v 1.97813h 2.51969v 3.87418h 2.51969v 1.18971h 2.51969v 1.75091h 2.51969v -2.60362h 2.51969v 1.19796h 2.51969v 5.10556h 2.51969v -2.06916h 2.51969v 1.68644h 2.51969v
 1.94397h 2.51969v 1.00146h 2.51969v 1.0222h 2.51969v 2.54325h 2.51969v 2.22427h 2.51969v 6.82055h 2.51969v -3.77057h 2.51969v 9.29258h 2.51969v -0.868711h 2.51969v 3.57051h 2.51969v -4.4242h 2.51969v 5.67415h 2.51969v -5.10667h 2.51969v 2.63763h
 2.51969v 1.84011h 2.51969v 5.27119h 2.51969v 7.90108h 2.51969v -1.20913h 2.51969v 2.03199h 5.03937v -3.59944h 2.51969v -0.384208h 2.51969v 2.75445h 2.51969v 3.34843h 2.51969v 0.434985h 2.51969v 11.7873h 2.51969v -4.24955h 2.51969v 7.10413h 2.51969v
 -8.11172h 2.51969v 3.08666h 2.51969v 0.53374h 2.51969v 4.49132h 2.51969v -1.73248h 2.51969v 12.8963h 2.51969v -10.5726h 2.51969v 21.2222h 2.51969v -26.8386h 2.51969v 26.8386h 2.51969v -12.1018h 2.51969v 6.08406h 2.51969v 3.34843h 2.51969v 9.52375h
 2.51969v -5.93158h 2.51969v 3.87418h 2.51969v 5.31378h 2.51969v -4.29579h 2.51969v 10.2513h 2.51969v -11.2692h 2.51969v 4.20428h 2.51969v -3.1863h 2.51969v 11.5337h 2.51969v -10.4943h 2.51969v 5.55309h 2.51969v -5.55309h 2.51969v 10.4943h 2.51969v
 -15.4854h 2.51969v 20.9767h 2.51969v 4.56052h 2.51969v -1.56745h 2.51969v 23.2043h 2.51969v -14.8163h 2.51969v -8.388h 2.51969v 8.388h 2.51969v 1.86326h 2.51969v -8.68381h 2.51969v 16.9314h 2.51969v 2.29672h 5.03937v 4.94117h 2.51969v -13.5491h
 2.51969v 11.0167h 2.51969v 2.53238h 2.51969v 8.48433h 2.51969v -27.6285h 2.51969v 19.1442h 2.51969" fill="none" stroke="#ff0000"/>
<path d="M57.1929,40.7391h 2.51969v 105.928h 2.51969v -28.9317h 2.51969v -3.68722h 2.51969v 7.54269h 2.51969v -1.40279h 2.51969v 2.62511h 2.51969v -0.483813h 2.51969v -2.80735h 2.51969v -37.7896h 2.51969v -23.4657h 2.51969v 6.12838h 2.51969v 5.9336h
 2.51969v 4.9243h 2.51969v 3.62113h 2.51969v 4.50083h 2.51969v 3.6511h 2.51969v 1.8542h 2.51969v 1.94968h 2.51969v 1.8855h 2.51969v 1.51246h 2.51969v -0.443894h 2.51969v 0.369634h 2.51969v 2.35564h 2.51969v 1.02231h 2.51969v 0.693492h 2.51969v
 2.08484h 2.51969v 0.990556h 2.51969v 0.229231h 2.51969v 1.9329h 2.51969v 0.600987h 2.51969v 3.54028h 2.51969v 0.785754h 2.51969v 2.29672h 2.51969v 2.08315h 2.51969v -0.215906h 2.51969v 0.94249h 2.51969v 0.515047h 2.51969v 1.42569h 2.51969v 3.34643h
 2.51969v -2.30782h 2.51969v 4.77164h 2.51969v -0.17098h 2.51969v 0.774118h 2.51969v 3.27017h 2.51969v 4.55753h 2.51969v -2.33134h 2.51969v 2.12858h 2.51969v 1.69816h 2.51969v 3.69501h 2.51969v -3.22155h 2.51969v 4.7108h 2.51969v 0.467416h 2.51969v
 1.0082h 2.51969v 1.89323h 2.51969v -0.310312h 2.51969v 3.72542h 2.51969v 1.97372h 2.51969v -2.83351h 2.51969v 5.76586h 2.51969v 1.26885h 2.51969v 0.761905h 2.51969v 0.930084h 2.51969v 2.65194h 2.51969v 2.19461h 2.51969v 4.04534h 2.51969v 1.23314h
 2.51969v -0.762494h 2.51969v -0.657657h 2.51969v 4.79893h 2.51969v 2.74939h 2.51969v 1.09961h 2.51969v -0.881639h 2.51969v 5.05628h 2.51969v 3.90135h 2.51969v -2.80011h 2.51969v -0.980092h 2.51969v 1.3527h 2.51969v 3.35281h 2.51969v 5.05366h
 2.51969v 0.594832h 2.51969v 0.753763h 2.51969v 2.97408h 2.51969v 1.3079h 2.51969v 5.98096h 2.51969v 3.88945h 2.51969v -4.26206h 2.51969v 2.4738h 2.51969v 2.39904h 2.51969v -0.812701h 2.51969v 3.3343h 2.51969v -1.90317h 2.51969v 1.90317h 2.51969v
 8.95821h 2.51969v -5.14998h 2.51969v 2.87676h 2.51969v 4.11659h 2.51969v 7.8346h 2.51969v -8.63306h 2.51969v 2.99307h 2.51969v 9.56555h 2.51969v -2.97303h 2.51969v 0.971254h 2.51969v 0.990745h 2.51969v 1.3527h 2.51969v 0.690508h 2.51969v 5.51172h
 2.51969v -6.20223h 2.51969v 10.2513h 2.51969v -9.90721h 2.51969v 8.65726h 2.51969v 4.29579h 2.51969v 1.36517h 2.51969v 4.33776h 2.51969v -3.87418h 2.51969v 9.18796h 2.51969v -8.71999h 2.51969v 9.28423h 2.51969v -4.34306h 2.51969v 13.686h 2.51969v
 0.690508h 2.51969v -4.64226h 2.51969v 12.9531h 2.51969v -1.61885h 2.51969v -6.69195h 2.51969v 3.60529h 2.51969v -2.19461h 2.51969v -4.11659h 2.51969v 20.018h 2.51969v -1.93635h 2.51969v 9.38255h 2.51969v 4.82046h 2.51969v -16.0663h 2.51969v 6.85442h
 2.51969v 14.5544h 2.51969v -18.5869h 2.51969v 4.03248h 2.51969v -7.76033h 2.51969v 9.90721h 2.51969v -4.20428h 2.51969v 7.61049h 2.51969v 21.8135h 2.51969v -18.1548h 2.51969v 9.76675h 2.51969v 4.86003h 2.51969v 11.4442h 2.51969v -6.05294h 2.51969v
 -16.0663h 2.51969v 5.81501h 2.51969v 8.388h 2.51969v -3.52796h 5.03937v -3.29259h 2.51969v 19.2281h 5.03937v 4.94117h 2.51969v 15.0768h 2.51969v -22.3147h 2.51969v -2.19461h 2.51969v 4.49132h 5.03937v 4.94117h 7.55905v 11.6706h 2.51969v 11.0167h
 2.51969v -14.203h 2.51969v 23.2043h 2.51969v -12.9531h 2.51969v 12.9531h 2.51969v -4.70551h 5.03937v 15.7222h 2.51969v -23.9698h 2.51969v 23.9698h 5.03937v -31.0347h 2.51969v 31.0347h 7.55905" fill="none" stroke="#00ff00"/>
<rect x="340.657" y="81.4783" width="113.386" height="40.7391" fill="white"/>
<text xml:space="preserve" x="368.719" y="91.1645" fill="black" font-size="15.4501" font-family="Helvetica">Local Isolation</text>
<path d="M344.909,88.2681h 19.8425" fill="none" stroke="#0000ff"/>
<text xml:space="preserve" x="368.719" y="104.697" fill="black" font-size="15.4501" font-family="Helvetica">Reco Isolation</text>
<path d="M344.909,101.848h 19.8425" fill="none" stroke="#ff0000"/>
<text xml:space="preserve" x="368.719" y="118.229" fill="black" font-size="15.4501" font-family="Helvetica">Local Iso with Treshold</text>
<path d="M344.909,115.428h 19.8425" fill="none" stroke="#00ff00"/>
<text xml:space="preserve" x="195.649" y="19.9422" fill="black" font-size="17.973" font-family="Helvetica">HCAL Neutral Isolation</text></svg>
