<?xml version="1.0" standalone="no"?>
<svg width="567.429" height="551.799" viewBox="0 0 567.429 551.799" xmlns="http://www.w3.org/2000/svg" shape-rendering="crispEdges">
<title>
histogram_comparison.svg
</title>
<desc>
Creator: ROOT Version 6.24/08
CreationDate: Fri Apr 26 13:22:39 2024</desc>
<defs>
</defs>
<rect x="0.5" y="0" width="566.929" height="551.299" fill="white"/>
<rect x="0.5" y="0" width="566.929" height="385.91" fill="white"/>
<rect x="57.1929" y="38.591" width="453.543" height="347.319" fill="white"/>
<rect x="57.1929" y="38.591" width="453.543" height="347.319" fill="none" stroke="black"/>
<rect x="57.1929" y="38.591" width="453.543" height="347.319" fill="white"/>
<rect x="57.1929" y="38.591" width="453.543" height="347.319" fill="none" stroke="black"/>
<path d="M57.1929,385.91h 120.945v -0.0669096h 15.1181v -0.200729h 15.1181v -0.869825h 15.1181v -3.41239h 15.1181v -5.41968h 15.1181v -23.0838h 15.1181v -176.574h 15.1181v -81.6297h 15.1181v 259.676h 15.1181v 21.478h 15.1181v 5.82114h 15.1181v
 1.33819h 15.1181v 0.802915h 15.1181v 0.802915h 15.1181v -0.0669096h 15.1181v 0.736006h 15.1181v 0.0669096h 15.1181v -0.0669096h 15.1181v 0.267638h 15.1181v 0.267638h 15.1181v -0.334548h 15.1181v 0.267638h 15.1181" fill="none" stroke="#0000ff"/>
<path d="M57.1929,385.91h 453.543" fill="none" stroke="black"/>
<path d="M57.1929,376.648v 9.26183" fill="none" stroke="black"/>
<path d="M69.7913,381.279v 4.63092" fill="none" stroke="black"/>
<path d="M82.3898,381.279v 4.63092" fill="none" stroke="black"/>
<path d="M94.9882,381.279v 4.63092" fill="none" stroke="black"/>
<path d="M107.587,376.648v 9.26183" fill="none" stroke="black"/>
<path d="M120.185,381.279v 4.63092" fill="none" stroke="black"/>
<path d="M132.783,381.279v 4.63092" fill="none" stroke="black"/>
<path d="M145.382,381.279v 4.63092" fill="none" stroke="black"/>
<path d="M157.98,376.648v 9.26183" fill="none" stroke="black"/>
<path d="M170.579,381.279v 4.63092" fill="none" stroke="black"/>
<path d="M183.177,381.279v 4.63092" fill="none" stroke="black"/>
<path d="M195.776,381.279v 4.63092" fill="none" stroke="black"/>
<path d="M208.374,376.648v 9.26183" fill="none" stroke="black"/>
<path d="M220.972,381.279v 4.63092" fill="none" stroke="black"/>
<path d="M233.571,381.279v 4.63092" fill="none" stroke="black"/>
<path d="M246.169,381.279v 4.63092" fill="none" stroke="black"/>
<path d="M258.768,376.648v 9.26183" fill="none" stroke="black"/>
<path d="M271.366,381.279v 4.63092" fill="none" stroke="black"/>
<path d="M283.965,381.279v 4.63092" fill="none" stroke="black"/>
<path d="M296.563,381.279v 4.63092" fill="none" stroke="black"/>
<path d="M309.161,376.648v 9.26183" fill="none" stroke="black"/>
<path d="M321.76,381.279v 4.63092" fill="none" stroke="black"/>
<path d="M334.358,381.279v 4.63092" fill="none" stroke="black"/>
<path d="M346.957,381.279v 4.63092" fill="none" stroke="black"/>
<path d="M359.555,376.648v 9.26183" fill="none" stroke="black"/>
<path d="M372.154,381.279v 4.63092" fill="none" stroke="black"/>
<path d="M384.752,381.279v 4.63092" fill="none" stroke="black"/>
<path d="M397.35,381.279v 4.63092" fill="none" stroke="black"/>
<path d="M409.949,376.648v 9.26183" fill="none" stroke="black"/>
<path d="M422.547,381.279v 4.63092" fill="none" stroke="black"/>
<path d="M435.146,381.279v 4.63092" fill="none" stroke="black"/>
<path d="M447.744,381.279v 4.63092" fill="none" stroke="black"/>
<path d="M460.343,376.648v 9.26183" fill="none" stroke="black"/>
<path d="M472.941,381.279v 4.63092" fill="none" stroke="black"/>
<path d="M485.539,381.279v 4.63092" fill="none" stroke="black"/>
<path d="M498.138,381.279v 4.63092" fill="none" stroke="black"/>
<path d="M510.736,376.648v 9.26183" fill="none" stroke="black"/>
<text xml:space="preserve" x="53.0724" y="398.555" fill="black" font-size="12.8916" font-family="Helvetica">0</text>
<text xml:space="preserve" x="99.9613" y="398.555" fill="black" font-size="12.8916" font-family="Helvetica">20</text>
<text xml:space="preserve" x="150.402" y="398.555" fill="black" font-size="12.8916" font-family="Helvetica">40</text>
<text xml:space="preserve" x="200.843" y="398.555" fill="black" font-size="12.8916" font-family="Helvetica">60</text>
<text xml:space="preserve" x="251.284" y="398.555" fill="black" font-size="12.8916" font-family="Helvetica">80</text>
<text xml:space="preserve" x="298.173" y="398.555" fill="black" font-size="12.8916" font-family="Helvetica">100</text>
<text xml:space="preserve" x="348.614" y="398.555" fill="black" font-size="12.8916" font-family="Helvetica">120</text>
<text xml:space="preserve" x="399.055" y="398.555" fill="black" font-size="12.8916" font-family="Helvetica">140</text>
<text xml:space="preserve" x="449.497" y="398.555" fill="black" font-size="12.8916" font-family="Helvetica">160</text>
<text xml:space="preserve" x="499.938" y="398.555" fill="black" font-size="12.8916" font-family="Helvetica">180</text>
<path d="M57.1929,385.91v -347.319" fill="none" stroke="black"/>
<path d="M72.5,385.91h -15.3071" fill="none" stroke="black"/>
<path d="M64.8465,371.738h -7.65354" fill="none" stroke="black"/>
<path d="M64.8465,357.566h -7.65354" fill="none" stroke="black"/>
<path d="M64.8465,343.395h -7.65354" fill="none" stroke="black"/>
<path d="M72.5,329.223h -15.3071" fill="none" stroke="black"/>
<path d="M64.8465,315.051h -7.65354" fill="none" stroke="black"/>
<path d="M64.8465,300.88h -7.65354" fill="none" stroke="black"/>
<path d="M64.8465,286.708h -7.65354" fill="none" stroke="black"/>
<path d="M72.5,272.536h -15.3071" fill="none" stroke="black"/>
<path d="M64.8465,258.365h -7.65354" fill="none" stroke="black"/>
<path d="M64.8465,244.193h -7.65354" fill="none" stroke="black"/>
<path d="M64.8465,230.022h -7.65354" fill="none" stroke="black"/>
<path d="M72.5,215.85h -15.3071" fill="none" stroke="black"/>
<path d="M64.8465,201.678h -7.65354" fill="none" stroke="black"/>
<path d="M64.8465,187.507h -7.65354" fill="none" stroke="black"/>
<path d="M64.8465,173.335h -7.65354" fill="none" stroke="black"/>
<path d="M72.5,159.163h -15.3071" fill="none" stroke="black"/>
<path d="M64.8465,144.992h -7.65354" fill="none" stroke="black"/>
<path d="M64.8465,130.82h -7.65354" fill="none" stroke="black"/>
<path d="M64.8465,116.648h -7.65354" fill="none" stroke="black"/>
<path d="M72.5,102.477h -15.3071" fill="none" stroke="black"/>
<path d="M64.8465,88.3051h -7.65354" fill="none" stroke="black"/>
<path d="M64.8465,74.1335h -7.65354" fill="none" stroke="black"/>
<path d="M64.8465,59.9618h -7.65354" fill="none" stroke="black"/>
<path d="M72.5,45.7902h -15.3071" fill="none" stroke="black"/>
<path d="M72.5,45.7902h -15.3071" fill="none" stroke="black"/>
<text xml:space="preserve" x="46.6784" y="390.741" fill="black" font-size="12.8916" font-family="Helvetica">0</text>
<text xml:space="preserve" x="32.4697" y="333.906" fill="black" font-size="12.8916" font-family="Helvetica">200</text>
<text xml:space="preserve" x="32.4697" y="277.071" fill="black" font-size="12.8916" font-family="Helvetica">400</text>
<text xml:space="preserve" x="32.4697" y="220.236" fill="black" font-size="12.8916" font-family="Helvetica">600</text>
<text xml:space="preserve" x="32.4697" y="164.111" fill="black" font-size="12.8916" font-family="Helvetica">800</text>
<text xml:space="preserve" x="25.3653" y="107.276" fill="black" font-size="12.8916" font-family="Helvetica">1000</text>
<text xml:space="preserve" x="25.3653" y="50.4411" fill="black" font-size="12.8916" font-family="Helvetica">1200</text>
<path d="M57.1929,377.123h 4.71731" fill="none" stroke="black"/>
<path d="M67.5937,377.123h 4.71731" fill="none" stroke="black"/>
<g fill="black">
<circle cx="64.752" cy="377.123" r="2.84175"/>
</g>
<path d="M72.311,383.642h 4.71731" fill="none" stroke="black"/>
<path d="M82.7118,383.642h 4.71731" fill="none" stroke="black"/>
<g fill="black">
<circle cx="79.8701" cy="383.642" r="2.84175"/>
</g>
<path d="M87.4291,383.642h 4.71731" fill="none" stroke="black"/>
<path d="M97.8299,383.642h 4.71731" fill="none" stroke="black"/>
<g fill="black">
<circle cx="94.9882" cy="383.642" r="2.84175"/>
</g>
<path d="M102.547,385.343h 4.71731" fill="none" stroke="black"/>
<path d="M112.948,385.343h 4.71731" fill="none" stroke="black"/>
<g fill="black">
<circle cx="110.106" cy="385.343" r="2.84175"/>
</g>
<path d="M117.665,383.642h 4.71731" fill="none" stroke="black"/>
<path d="M128.066,383.642h 4.71731" fill="none" stroke="black"/>
<g fill="black">
<circle cx="125.224" cy="383.642" r="2.84175"/>
</g>
<path d="M147.902,385.059h 4.71731" fill="none" stroke="black"/>
<path d="M158.302,385.059h 4.71731" fill="none" stroke="black"/>
<g fill="black">
<circle cx="155.461" cy="385.059" r="2.84175"/>
</g>
<path d="M163.02,384.776h 4.71731" fill="none" stroke="black"/>
<path d="M173.42,384.776h 4.71731" fill="none" stroke="black"/>
<g fill="black">
<circle cx="170.579" cy="384.776" r="2.84175"/>
</g>
<path d="M178.138,385.059h 4.71731" fill="none" stroke="black"/>
<path d="M188.539,385.059h 4.71731" fill="none" stroke="black"/>
<g fill="black">
<circle cx="185.697" cy="385.059" r="2.84175"/>
</g>
<path d="M193.256,383.926h 4.71731" fill="none" stroke="black"/>
<path d="M203.657,383.926h 4.71731" fill="none" stroke="black"/>
<g fill="black">
<circle cx="200.815" cy="383.926" r="2.84175"/>
</g>
<path d="M208.374,382.792h 4.71731" fill="none" stroke="black"/>
<path d="M218.775,382.792h 4.71731" fill="none" stroke="black"/>
<g fill="black">
<circle cx="215.933" cy="382.792" r="2.84175"/>
</g>
<path d="M223.492,378.257h 4.71731" fill="none" stroke="black"/>
<path d="M233.893,378.257h 4.71731" fill="none" stroke="black"/>
<g fill="black">
<circle cx="231.051" cy="378.257" r="2.84175"/>
</g>
<path d="M238.61,370.321h 4.71731" fill="none" stroke="black"/>
<path d="M249.011,370.321h 4.71731" fill="none" stroke="black"/>
<g fill="black">
<circle cx="246.169" cy="370.321" r="2.84175"/>
</g>
<path d="M261.287,336.51v -1.04449" fill="none" stroke="black"/>
<path d="M261.287,329.783v -1.04449" fill="none" stroke="black"/>
<path d="M253.728,332.624h 4.71731" fill="none" stroke="black"/>
<path d="M264.129,332.624h 4.71731" fill="none" stroke="black"/>
<g fill="black">
<circle cx="261.287" cy="332.624" r="2.84175"/>
</g>
<path d="M276.406,138.766v -5.67068" fill="none" stroke="black"/>
<path d="M276.406,127.411v -5.67068" fill="none" stroke="black"/>
<path d="M268.846,130.253h 4.71731" fill="none" stroke="black"/>
<path d="M279.247,130.253h 4.71731" fill="none" stroke="black"/>
<g fill="black">
<circle cx="276.406" cy="130.253" r="2.84175"/>
</g>
<path d="M291.524,79.6254v -6.61829" fill="none" stroke="black"/>
<path d="M291.524,67.3236v -6.61829" fill="none" stroke="black"/>
<path d="M283.965,70.1654h 4.71731" fill="none" stroke="black"/>
<path d="M294.365,70.1654h 4.71731" fill="none" stroke="black"/>
<g fill="black">
<circle cx="291.524" cy="70.1654" r="2.84175"/>
</g>
<path d="M306.642,345.778v -0.67556" fill="none" stroke="black"/>
<path d="M306.642,339.419v -0.67556" fill="none" stroke="black"/>
<path d="M299.083,342.261h 4.71731" fill="none" stroke="black"/>
<path d="M309.483,342.261h 4.71731" fill="none" stroke="black"/>
<g fill="black">
<circle cx="306.642" cy="342.261" r="2.84175"/>
</g>
<path d="M314.201,366.636h 4.71731" fill="none" stroke="black"/>
<path d="M324.602,366.636h 4.71731" fill="none" stroke="black"/>
<g fill="black">
<circle cx="321.76" cy="366.636" r="2.84175"/>
</g>
<path d="M329.319,373.439h 4.71731" fill="none" stroke="black"/>
<path d="M339.72,373.439h 4.71731" fill="none" stroke="black"/>
<g fill="black">
<circle cx="336.878" cy="373.439" r="2.84175"/>
</g>
<path d="M344.437,375.99h 4.71731" fill="none" stroke="black"/>
<path d="M354.838,375.99h 4.71731" fill="none" stroke="black"/>
<g fill="black">
<circle cx="351.996" cy="375.99" r="2.84175"/>
</g>
<path d="M359.555,378.54h 4.71731" fill="none" stroke="black"/>
<path d="M369.956,378.54h 4.71731" fill="none" stroke="black"/>
<g fill="black">
<circle cx="367.114" cy="378.54" r="2.84175"/>
</g>
<path d="M374.673,380.808h 4.71731" fill="none" stroke="black"/>
<path d="M385.074,380.808h 4.71731" fill="none" stroke="black"/>
<g fill="black">
<circle cx="382.232" cy="380.808" r="2.84175"/>
</g>
<path d="M389.791,382.225h 4.71731" fill="none" stroke="black"/>
<path d="M400.192,382.225h 4.71731" fill="none" stroke="black"/>
<g fill="black">
<circle cx="397.35" cy="382.225" r="2.84175"/>
</g>
<path d="M404.909,381.091h 4.71731" fill="none" stroke="black"/>
<path d="M415.31,381.091h 4.71731" fill="none" stroke="black"/>
<g fill="black">
<circle cx="412.469" cy="381.091" r="2.84175"/>
</g>
<path d="M420.028,381.375h 4.71731" fill="none" stroke="black"/>
<path d="M430.428,381.375h 4.71731" fill="none" stroke="black"/>
<g fill="black">
<circle cx="427.587" cy="381.375" r="2.84175"/>
</g>
<path d="M435.146,382.792h 4.71731" fill="none" stroke="black"/>
<path d="M445.546,382.792h 4.71731" fill="none" stroke="black"/>
<g fill="black">
<circle cx="442.705" cy="382.792" r="2.84175"/>
</g>
<path d="M450.264,380.241h 4.71731" fill="none" stroke="black"/>
<path d="M460.665,380.241h 4.71731" fill="none" stroke="black"/>
<g fill="black">
<circle cx="457.823" cy="380.241" r="2.84175"/>
</g>
<path d="M465.382,381.658h 4.71731" fill="none" stroke="black"/>
<path d="M475.783,381.658h 4.71731" fill="none" stroke="black"/>
<g fill="black">
<circle cx="472.941" cy="381.658" r="2.84175"/>
</g>
<path d="M480.5,382.508h 4.71731" fill="none" stroke="black"/>
<path d="M490.901,382.508h 4.71731" fill="none" stroke="black"/>
<g fill="black">
<circle cx="488.059" cy="382.508" r="2.84175"/>
</g>
<path d="M495.618,383.075h 4.71731" fill="none" stroke="black"/>
<path d="M506.019,383.075h 4.71731" fill="none" stroke="black"/>
<g fill="black">
<circle cx="503.177" cy="383.075" r="2.84175"/>
</g>
<rect x="397.35" y="38.591" width="113.386" height="77.1819" fill="white"/>
<path d="M397.35,115.773h 113.386" fill="none" stroke="black"/>
<path d="M510.736,115.773v -77.1819" fill="none" stroke="black"/>
<path d="M510.736,38.591h -113.386" fill="none" stroke="black"/>
<path d="M397.35,38.591v 77.1819" fill="none" stroke="black"/>
<text xml:space="preserve" x="425.342" y="63.2289" fill="black" font-size="13.5513" font-family="Helvetica">D-Y</text>
<path d="M401.602,57.8864h 19.8425" fill="none" stroke="#0000ff"/>
<text xml:space="preserve" x="425.342" y="100.172" fill="black" font-size="13.5513" font-family="Helvetica">Data (2022C)</text>
<g fill="black">
<circle cx="411.524" cy="96.4774" r="2.84175"/>
</g>
<text xml:space="preserve" x="273.308" y="19.1818" fill="black" font-size="17.0516" font-family="Helvetica">Mll</text>
<rect x="0.5" y="385.91" width="566.929" height="165.39" fill="white"/>
<rect x="57.1929" y="385.91" width="453.543" height="148.851" fill="white"/>
<rect x="57.1929" y="385.91" width="453.543" height="148.851" fill="none" stroke="black"/>
<rect x="57.1929" y="385.91" width="453.543" height="148.851" fill="white"/>
<rect x="57.1929" y="385.91" width="453.543" height="148.851" fill="none" stroke="black"/>
<path d="M57.1929,534.76h 120.945v -5.8565h 15.1181v -4.18322h 15.1181v -17.1132h 15.1181v -17.0963h 15.1181v -3.34826h 15.1181v 1.43071h 15.1181v -14.8591h 15.1181v -7.62777h 15.1181v 14.8042h 15.1181v 14.8348h 15.1181v 13.459h 15.1181v 3.46827h
 15.1181v 0.463372h 15.1181v 2.10233h 15.1181v -8.85984h 15.1181v 18.0465h 15.1181v 0.452157h 15.1181v -6.08943h 15.1181v 10.7014h 15.1181v 2.92825h 15.1181v -7.90628h 15.1181v 4.97803h 15.1181" fill="none" stroke="#0000ff"/>
<path d="M57.1929,534.76h 453.543" fill="none" stroke="black"/>
<path d="M57.1929,530.791v 3.96936" fill="none" stroke="black"/>
<path d="M69.7913,532.776v 1.98468" fill="none" stroke="black"/>
<path d="M82.3898,532.776v 1.98468" fill="none" stroke="black"/>
<path d="M94.9882,532.776v 1.98468" fill="none" stroke="black"/>
<path d="M107.587,530.791v 3.96936" fill="none" stroke="black"/>
<path d="M120.185,532.776v 1.98468" fill="none" stroke="black"/>
<path d="M132.783,532.776v 1.98468" fill="none" stroke="black"/>
<path d="M145.382,532.776v 1.98468" fill="none" stroke="black"/>
<path d="M157.98,530.791v 3.96936" fill="none" stroke="black"/>
<path d="M170.579,532.776v 1.98468" fill="none" stroke="black"/>
<path d="M183.177,532.776v 1.98468" fill="none" stroke="black"/>
<path d="M195.776,532.776v 1.98468" fill="none" stroke="black"/>
<path d="M208.374,530.791v 3.96936" fill="none" stroke="black"/>
<path d="M220.972,532.776v 1.98468" fill="none" stroke="black"/>
<path d="M233.571,532.776v 1.98468" fill="none" stroke="black"/>
<path d="M246.169,532.776v 1.98468" fill="none" stroke="black"/>
<path d="M258.768,530.791v 3.96936" fill="none" stroke="black"/>
<path d="M271.366,532.776v 1.98468" fill="none" stroke="black"/>
<path d="M283.965,532.776v 1.98468" fill="none" stroke="black"/>
<path d="M296.563,532.776v 1.98468" fill="none" stroke="black"/>
<path d="M309.161,530.791v 3.96936" fill="none" stroke="black"/>
<path d="M321.76,532.776v 1.98468" fill="none" stroke="black"/>
<path d="M334.358,532.776v 1.98468" fill="none" stroke="black"/>
<path d="M346.957,532.776v 1.98468" fill="none" stroke="black"/>
<path d="M359.555,530.791v 3.96936" fill="none" stroke="black"/>
<path d="M372.154,532.776v 1.98468" fill="none" stroke="black"/>
<path d="M384.752,532.776v 1.98468" fill="none" stroke="black"/>
<path d="M397.35,532.776v 1.98468" fill="none" stroke="black"/>
<path d="M409.949,530.791v 3.96936" fill="none" stroke="black"/>
<path d="M422.547,532.776v 1.98468" fill="none" stroke="black"/>
<path d="M435.146,532.776v 1.98468" fill="none" stroke="black"/>
<path d="M447.744,532.776v 1.98468" fill="none" stroke="black"/>
<path d="M460.343,530.791v 3.96936" fill="none" stroke="black"/>
<path d="M472.941,532.776v 1.98468" fill="none" stroke="black"/>
<path d="M485.539,532.776v 1.98468" fill="none" stroke="black"/>
<path d="M498.138,532.776v 1.98468" fill="none" stroke="black"/>
<path d="M510.736,530.791v 3.96936" fill="none" stroke="black"/>
<text xml:space="preserve" x="54.4933" y="539.932" fill="black" font-size="5.81068" font-family="Helvetica">0</text>
<text xml:space="preserve" x="103.513" y="539.932" fill="black" font-size="5.81068" font-family="Helvetica">20</text>
<text xml:space="preserve" x="153.954" y="539.932" fill="black" font-size="5.81068" font-family="Helvetica">40</text>
<text xml:space="preserve" x="204.396" y="539.932" fill="black" font-size="5.81068" font-family="Helvetica">60</text>
<text xml:space="preserve" x="254.837" y="539.932" fill="black" font-size="5.81068" font-family="Helvetica">80</text>
<text xml:space="preserve" x="303.857" y="539.932" fill="black" font-size="5.81068" font-family="Helvetica">100</text>
<text xml:space="preserve" x="354.298" y="539.932" fill="black" font-size="5.81068" font-family="Helvetica">120</text>
<text xml:space="preserve" x="404.739" y="539.932" fill="black" font-size="5.81068" font-family="Helvetica">140</text>
<text xml:space="preserve" x="455.18" y="539.932" fill="black" font-size="5.81068" font-family="Helvetica">160</text>
<text xml:space="preserve" x="505.621" y="539.932" fill="black" font-size="5.81068" font-family="Helvetica">180</text>
<path d="M57.1929,534.76v -148.851" fill="none" stroke="black"/>
<path d="M72.5,534.76h -15.3071" fill="none" stroke="black"/>
<path d="M64.8465,531.039h -7.65354" fill="none" stroke="black"/>
<path d="M64.8465,527.318h -7.65354" fill="none" stroke="black"/>
<path d="M64.8465,523.597h -7.65354" fill="none" stroke="black"/>
<path d="M72.5,519.875h -15.3071" fill="none" stroke="black"/>
<path d="M64.8465,516.154h -7.65354" fill="none" stroke="black"/>
<path d="M64.8465,512.433h -7.65354" fill="none" stroke="black"/>
<path d="M64.8465,508.712h -7.65354" fill="none" stroke="black"/>
<path d="M72.5,504.99h -15.3071" fill="none" stroke="black"/>
<path d="M64.8465,501.269h -7.65354" fill="none" stroke="black"/>
<path d="M64.8465,497.548h -7.65354" fill="none" stroke="black"/>
<path d="M64.8465,493.827h -7.65354" fill="none" stroke="black"/>
<path d="M72.5,490.105h -15.3071" fill="none" stroke="black"/>
<path d="M64.8465,486.384h -7.65354" fill="none" stroke="black"/>
<path d="M64.8465,482.663h -7.65354" fill="none" stroke="black"/>
<path d="M64.8465,478.941h -7.65354" fill="none" stroke="black"/>
<path d="M72.5,475.22h -15.3071" fill="none" stroke="black"/>
<path d="M64.8465,471.499h -7.65354" fill="none" stroke="black"/>
<path d="M64.8465,467.778h -7.65354" fill="none" stroke="black"/>
<path d="M64.8465,464.056h -7.65354" fill="none" stroke="black"/>
<path d="M72.5,460.335h -15.3071" fill="none" stroke="black"/>
<path d="M64.8465,456.614h -7.65354" fill="none" stroke="black"/>
<path d="M64.8465,452.893h -7.65354" fill="none" stroke="black"/>
<path d="M64.8465,449.171h -7.65354" fill="none" stroke="black"/>
<path d="M72.5,445.45h -15.3071" fill="none" stroke="black"/>
<path d="M64.8465,441.729h -7.65354" fill="none" stroke="black"/>
<path d="M64.8465,438.007h -7.65354" fill="none" stroke="black"/>
<path d="M64.8465,434.286h -7.65354" fill="none" stroke="black"/>
<path d="M72.5,430.565h -15.3071" fill="none" stroke="black"/>
<path d="M64.8465,426.844h -7.65354" fill="none" stroke="black"/>
<path d="M64.8465,423.122h -7.65354" fill="none" stroke="black"/>
<path d="M64.8465,419.401h -7.65354" fill="none" stroke="black"/>
<path d="M72.5,415.68h -15.3071" fill="none" stroke="black"/>
<path d="M64.8465,411.959h -7.65354" fill="none" stroke="black"/>
<path d="M64.8465,408.237h -7.65354" fill="none" stroke="black"/>
<path d="M64.8465,404.516h -7.65354" fill="none" stroke="black"/>
<path d="M72.5,400.795h -15.3071" fill="none" stroke="black"/>
<path d="M64.8465,397.073h -7.65354" fill="none" stroke="black"/>
<path d="M64.8465,393.352h -7.65354" fill="none" stroke="black"/>
<path d="M64.8465,389.631h -7.65354" fill="none" stroke="black"/>
<path d="M72.5,385.91h -15.3071" fill="none" stroke="black"/>
<text xml:space="preserve" x="50.2306" y="536.38" fill="black" font-size="5.81068" font-family="Helvetica">0</text>
<text xml:space="preserve" x="45.968" y="521.461" fill="black" font-size="5.81068" font-family="Helvetica">0.2</text>
<text xml:space="preserve" x="45.968" y="506.542" fill="black" font-size="5.81068" font-family="Helvetica">0.4</text>
<text xml:space="preserve" x="45.968" y="491.623" fill="black" font-size="5.81068" font-family="Helvetica">0.6</text>
<text xml:space="preserve" x="45.968" y="476.704" fill="black" font-size="5.81068" font-family="Helvetica">0.8</text>
<text xml:space="preserve" x="51.6515" y="462.495" fill="black" font-size="5.81068" font-family="Helvetica">1</text>
<text xml:space="preserve" x="45.968" y="448.286" fill="black" font-size="5.81068" font-family="Helvetica">1.2</text>
<text xml:space="preserve" x="45.968" y="433.367" fill="black" font-size="5.81068" font-family="Helvetica">1.4</text>
<text xml:space="preserve" x="45.968" y="417.737" fill="black" font-size="5.81068" font-family="Helvetica">1.6</text>
<text xml:space="preserve" x="45.968" y="402.818" fill="black" font-size="5.81068" font-family="Helvetica">1.8</text>
<text xml:space="preserve" x="50.2306" y="388.609" fill="black" font-size="5.81068" font-family="Helvetica">2</text>
<path d="M57.1929,460.335h 453.543" fill="none" stroke="black" stroke-dasharray=" 3, 3"/>
<path d="M64.752,473.702v -10.5255" fill="none" stroke="black"/>
<path d="M64.752,457.493v -10.5255" fill="none" stroke="black"/>
<path d="M57.1929,460.335h 4.71731" fill="none" stroke="black"/>
<path d="M67.5937,460.335h 4.71731" fill="none" stroke="black"/>
<g fill="black">
<circle cx="64.752" cy="460.335" r="2.84175"/>
</g>
<path d="M79.8701,486.648v -23.4716" fill="none" stroke="black"/>
<path d="M79.8701,457.493v -23.4716" fill="none" stroke="black"/>
<path d="M72.311,460.335h 4.71731" fill="none" stroke="black"/>
<path d="M82.7118,460.335h 4.71731" fill="none" stroke="black"/>
<g fill="black">
<circle cx="79.8701" cy="460.335" r="2.84175"/>
</g>
<path d="M94.9882,486.648v -23.4716" fill="none" stroke="black"/>
<path d="M94.9882,457.493v -23.4716" fill="none" stroke="black"/>
<path d="M87.4291,460.335h 4.71731" fill="none" stroke="black"/>
<path d="M97.8299,460.335h 4.71731" fill="none" stroke="black"/>
<g fill="black">
<circle cx="94.9882" cy="460.335" r="2.84175"/>
</g>
<path d="M110.106,512.962v -49.785" fill="none" stroke="black"/>
<path d="M110.106,457.493v -49.785" fill="none" stroke="black"/>
<path d="M102.547,460.335h 4.71731" fill="none" stroke="black"/>
<path d="M112.948,460.335h 4.71731" fill="none" stroke="black"/>
<g fill="black">
<circle cx="110.106" cy="460.335" r="2.84175"/>
</g>
<path d="M125.224,486.648v -23.4716" fill="none" stroke="black"/>
<path d="M125.224,457.493v -23.4716" fill="none" stroke="black"/>
<path d="M117.665,460.335h 4.71731" fill="none" stroke="black"/>
<path d="M128.066,460.335h 4.71731" fill="none" stroke="black"/>
<g fill="black">
<circle cx="125.224" cy="460.335" r="2.84175"/>
</g>
<path d="M155.461,503.305v -40.1278" fill="none" stroke="black"/>
<path d="M155.461,457.493v -40.1278" fill="none" stroke="black"/>
<path d="M147.902,460.335h 4.71731" fill="none" stroke="black"/>
<path d="M158.302,460.335h 4.71731" fill="none" stroke="black"/>
<g fill="black">
<circle cx="155.461" cy="460.335" r="2.84175"/>
</g>
<path d="M170.579,497.548v -34.371" fill="none" stroke="black"/>
<path d="M170.579,457.493v -34.371" fill="none" stroke="black"/>
<path d="M163.02,460.335h 4.71731" fill="none" stroke="black"/>
<path d="M173.42,460.335h 4.71731" fill="none" stroke="black"/>
<g fill="black">
<circle cx="170.579" cy="460.335" r="2.84175"/>
</g>
<path d="M185.697,503.305v -40.1278" fill="none" stroke="black"/>
<path d="M185.697,457.493v -40.1278" fill="none" stroke="black"/>
<path d="M178.138,460.335h 4.71731" fill="none" stroke="black"/>
<path d="M188.539,460.335h 4.71731" fill="none" stroke="black"/>
<g fill="black">
<circle cx="185.697" cy="460.335" r="2.84175"/>
</g>
<path d="M200.815,488.465v -25.2884" fill="none" stroke="black"/>
<path d="M200.815,457.493v -25.2884" fill="none" stroke="black"/>
<path d="M193.256,460.335h 4.71731" fill="none" stroke="black"/>
<path d="M203.657,460.335h 4.71731" fill="none" stroke="black"/>
<g fill="black">
<circle cx="200.815" cy="460.335" r="2.84175"/>
</g>
<path d="M215.933,482.775v -19.5984" fill="none" stroke="black"/>
<path d="M215.933,457.493v -19.5984" fill="none" stroke="black"/>
<path d="M208.374,460.335h 4.71731" fill="none" stroke="black"/>
<path d="M218.775,460.335h 4.71731" fill="none" stroke="black"/>
<g fill="black">
<circle cx="215.933" cy="460.335" r="2.84175"/>
</g>
<path d="M231.051,474.658v -11.4814" fill="none" stroke="black"/>
<path d="M231.051,457.493v -11.4814" fill="none" stroke="black"/>
<path d="M223.492,460.335h 4.71731" fill="none" stroke="black"/>
<path d="M233.893,460.335h 4.71731" fill="none" stroke="black"/>
<g fill="black">
<circle cx="231.051" cy="460.335" r="2.84175"/>
</g>
<path d="M246.169,470.371v -7.19377" fill="none" stroke="black"/>
<path d="M246.169,457.493v -7.19377" fill="none" stroke="black"/>
<path d="M238.61,460.335h 4.71731" fill="none" stroke="black"/>
<path d="M249.011,460.335h 4.71731" fill="none" stroke="black"/>
<g fill="black">
<circle cx="246.169" cy="460.335" r="2.84175"/>
</g>
<path d="M261.287,465.763v -2.58628" fill="none" stroke="black"/>
<path d="M261.287,457.493v -2.58628" fill="none" stroke="black"/>
<path d="M253.728,460.335h 4.71731" fill="none" stroke="black"/>
<path d="M264.129,460.335h 4.71731" fill="none" stroke="black"/>
<g fill="black">
<circle cx="261.287" cy="460.335" r="2.84175"/>
</g>
<path d="M268.846,460.335h 4.71731" fill="none" stroke="black"/>
<path d="M279.247,460.335h 4.71731" fill="none" stroke="black"/>
<g fill="black">
<circle cx="276.406" cy="460.335" r="2.84175"/>
</g>
<path d="M283.965,460.335h 4.71731" fill="none" stroke="black"/>
<path d="M294.365,460.335h 4.71731" fill="none" stroke="black"/>
<g fill="black">
<circle cx="291.524" cy="460.335" r="2.84175"/>
</g>
<path d="M306.642,466.332v -3.15562" fill="none" stroke="black"/>
<path d="M306.642,457.493v -3.15562" fill="none" stroke="black"/>
<path d="M299.083,460.335h 4.71731" fill="none" stroke="black"/>
<path d="M309.483,460.335h 4.71731" fill="none" stroke="black"/>
<g fill="black">
<circle cx="306.642" cy="460.335" r="2.84175"/>
</g>
<path d="M321.76,469.361v -6.18366" fill="none" stroke="black"/>
<path d="M321.76,457.493v -6.18366" fill="none" stroke="black"/>
<path d="M314.201,460.335h 4.71731" fill="none" stroke="black"/>
<path d="M324.602,460.335h 4.71731" fill="none" stroke="black"/>
<g fill="black">
<circle cx="321.76" cy="460.335" r="2.84175"/>
</g>
<path d="M336.878,471.555v -8.37831" fill="none" stroke="black"/>
<path d="M336.878,457.493v -8.37831" fill="none" stroke="black"/>
<path d="M329.319,460.335h 4.71731" fill="none" stroke="black"/>
<path d="M339.72,460.335h 4.71731" fill="none" stroke="black"/>
<g fill="black">
<circle cx="336.878" cy="460.335" r="2.84175"/>
</g>
<path d="M351.996,472.915v -9.73844" fill="none" stroke="black"/>
<path d="M351.996,457.493v -9.73844" fill="none" stroke="black"/>
<path d="M344.437,460.335h 4.71731" fill="none" stroke="black"/>
<path d="M354.838,460.335h 4.71731" fill="none" stroke="black"/>
<g fill="black">
<circle cx="351.996" cy="460.335" r="2.84175"/>
</g>
<path d="M367.114,474.931v -11.7543" fill="none" stroke="black"/>
<path d="M367.114,457.493v -11.7543" fill="none" stroke="black"/>
<path d="M359.555,460.335h 4.71731" fill="none" stroke="black"/>
<path d="M369.956,460.335h 4.71731" fill="none" stroke="black"/>
<g fill="black">
<circle cx="367.114" cy="460.335" r="2.84175"/>
</g>
<path d="M382.232,477.877v -14.7005" fill="none" stroke="black"/>
<path d="M382.232,457.493v -14.7005" fill="none" stroke="black"/>
<path d="M374.673,460.335h 4.71731" fill="none" stroke="black"/>
<path d="M385.074,460.335h 4.71731" fill="none" stroke="black"/>
<g fill="black">
<circle cx="382.232" cy="460.335" r="2.84175"/>
</g>
<path d="M397.35,480.977v -17.8002" fill="none" stroke="black"/>
<path d="M397.35,457.493v -17.8002" fill="none" stroke="black"/>
<path d="M389.791,460.335h 4.71731" fill="none" stroke="black"/>
<path d="M400.192,460.335h 4.71731" fill="none" stroke="black"/>
<g fill="black">
<circle cx="397.35" cy="460.335" r="2.84175"/>
</g>
<path d="M412.469,478.386v -15.2091" fill="none" stroke="black"/>
<path d="M412.469,457.493v -15.2091" fill="none" stroke="black"/>
<path d="M404.909,460.335h 4.71731" fill="none" stroke="black"/>
<path d="M415.31,460.335h 4.71731" fill="none" stroke="black"/>
<g fill="black">
<circle cx="412.469" cy="460.335" r="2.84175"/>
</g>
<path d="M427.587,478.941v -15.7646" fill="none" stroke="black"/>
<path d="M427.587,457.493v -15.7646" fill="none" stroke="black"/>
<path d="M420.028,460.335h 4.71731" fill="none" stroke="black"/>
<path d="M430.428,460.335h 4.71731" fill="none" stroke="black"/>
<g fill="black">
<circle cx="427.587" cy="460.335" r="2.84175"/>
</g>
<path d="M442.705,482.775v -19.5984" fill="none" stroke="black"/>
<path d="M442.705,457.493v -19.5984" fill="none" stroke="black"/>
<path d="M435.146,460.335h 4.71731" fill="none" stroke="black"/>
<path d="M445.546,460.335h 4.71731" fill="none" stroke="black"/>
<g fill="black">
<circle cx="442.705" cy="460.335" r="2.84175"/>
</g>
<path d="M457.823,476.977v -13.8003" fill="none" stroke="black"/>
<path d="M457.823,457.493v -13.8003" fill="none" stroke="black"/>
<path d="M450.264,460.335h 4.71731" fill="none" stroke="black"/>
<path d="M460.665,460.335h 4.71731" fill="none" stroke="black"/>
<g fill="black">
<circle cx="457.823" cy="460.335" r="2.84175"/>
</g>
<path d="M472.941,479.552v -16.3748" fill="none" stroke="black"/>
<path d="M472.941,457.493v -16.3748" fill="none" stroke="black"/>
<path d="M465.382,460.335h 4.71731" fill="none" stroke="black"/>
<path d="M475.783,460.335h 4.71731" fill="none" stroke="black"/>
<g fill="black">
<circle cx="472.941" cy="460.335" r="2.84175"/>
</g>
<path d="M488.059,481.82v -18.643" fill="none" stroke="black"/>
<path d="M488.059,457.493v -18.643" fill="none" stroke="black"/>
<path d="M480.5,460.335h 4.71731" fill="none" stroke="black"/>
<path d="M490.901,460.335h 4.71731" fill="none" stroke="black"/>
<g fill="black">
<circle cx="488.059" cy="460.335" r="2.84175"/>
</g>
<path d="M503.177,483.87v -20.6936" fill="none" stroke="black"/>
<path d="M503.177,457.493v -20.6936" fill="none" stroke="black"/>
<path d="M495.618,460.335h 4.71731" fill="none" stroke="black"/>
<path d="M506.019,460.335h 4.71731" fill="none" stroke="black"/>
<g fill="black">
<circle cx="503.177" cy="460.335" r="2.84175"/>
</g>
<text xml:space="preserve" x="269.756" y="393.582" fill="black" font-size="7.59356" font-family="Helvetica">MC/Data</text></svg>
