<?xml version="1.0" standalone="no"?>
<svg width="567.429" height="551.799" viewBox="0 0 567.429 551.799" xmlns="http://www.w3.org/2000/svg" shape-rendering="crispEdges">
<title>
Run2022G/HcalTowerIsodr03.svg
</title>
<desc>
Creator: ROOT Version 6.24/08
CreationDate: Tue Sep 17 13:53:29 2024</desc>
<defs>
</defs>
<rect x="0.5" y="0" width="566.929" height="551.299" fill="white"/>
<rect x="0.5" y="0" width="566.929" height="385.91" fill="white"/>
<rect x="57.1929" y="38.591" width="453.543" height="347.319" fill="white"/>
<rect x="57.1929" y="38.591" width="453.543" height="347.319" fill="none" stroke="black"/>
<rect x="57.1929" y="38.591" width="453.543" height="347.319" fill="white"/>
<rect x="57.1929" y="38.591" width="453.543" height="347.319" fill="none" stroke="black"/>
<path d="M57.1929,383.333h 9.07087v -10.2016h 9.07087v -25.3395h 9.07087v -46.6685h 9.07087v -64.8388h 9.07087v -65.6886h 9.07087v -55.8634h 9.07087v -32.4038h 9.07087v -12.1632h 9.07087v 7.50631h 9.07087v 18.055h 9.07087v 23.0736h 9.07087v 25.3567h
 9.07087v 27.0889h 9.07087v 26.1241h 9.07087v 24.0166h 9.07087v 21.0436h 9.07087v 19.9097h 9.07087v 16.4199h 9.07087v 15.7228h 9.07087v 14.1701h 9.07087v 13.0983h 9.07087v 9.15728h 9.07087v 8.87965h 9.07087v 6.77777h 9.07087v 6.36575h 9.07087v
 5.69361h 9.07087v 4.25541h 9.07087v 3.81212h 9.07087v 3.02937h 9.07087v 2.97301h 9.07087v 2.28585h 9.07087v 1.92182h 9.07087v 1.33574h 9.07087v 1.21115h 9.07087v 1.05839h 9.07087v 1.08394h 9.07087v 0.582846h 9.07087v 0.707316h 9.07087v 0.498236h
 9.07087v 0.379197h 9.07087v 0.436447h 9.07087v 0.159738h 9.07087v 0.271585h 9.07087v 0.25007h 9.07087v 0.133316h 9.07087v 0.195308h 9.07087v 0.108002h 9.07087v 0.0732506h 9.07087v 0.0708882h 9.07087" fill="none" stroke="#0000ff"/>
<path d="M57.1929,385.91h 453.543" fill="none" stroke="black"/>
<path d="M57.1929,376.648v 9.26183" fill="none" stroke="black"/>
<path d="M72.311,381.279v 4.63092" fill="none" stroke="black"/>
<path d="M87.4291,381.279v 4.63092" fill="none" stroke="black"/>
<path d="M102.547,381.279v 4.63092" fill="none" stroke="black"/>
<path d="M117.665,376.648v 9.26183" fill="none" stroke="black"/>
<path d="M132.783,381.279v 4.63092" fill="none" stroke="black"/>
<path d="M147.902,381.279v 4.63092" fill="none" stroke="black"/>
<path d="M163.02,381.279v 4.63092" fill="none" stroke="black"/>
<path d="M178.138,376.648v 9.26183" fill="none" stroke="black"/>
<path d="M193.256,381.279v 4.63092" fill="none" stroke="black"/>
<path d="M208.374,381.279v 4.63092" fill="none" stroke="black"/>
<path d="M223.492,381.279v 4.63092" fill="none" stroke="black"/>
<path d="M238.61,376.648v 9.26183" fill="none" stroke="black"/>
<path d="M253.728,381.279v 4.63092" fill="none" stroke="black"/>
<path d="M268.846,381.279v 4.63092" fill="none" stroke="black"/>
<path d="M283.965,381.279v 4.63092" fill="none" stroke="black"/>
<path d="M299.083,376.648v 9.26183" fill="none" stroke="black"/>
<path d="M314.201,381.279v 4.63092" fill="none" stroke="black"/>
<path d="M329.319,381.279v 4.63092" fill="none" stroke="black"/>
<path d="M344.437,381.279v 4.63092" fill="none" stroke="black"/>
<path d="M359.555,376.648v 9.26183" fill="none" stroke="black"/>
<path d="M374.673,381.279v 4.63092" fill="none" stroke="black"/>
<path d="M389.791,381.279v 4.63092" fill="none" stroke="black"/>
<path d="M404.909,381.279v 4.63092" fill="none" stroke="black"/>
<path d="M420.028,376.648v 9.26183" fill="none" stroke="black"/>
<path d="M435.146,381.279v 4.63092" fill="none" stroke="black"/>
<path d="M450.264,381.279v 4.63092" fill="none" stroke="black"/>
<path d="M465.382,381.279v 4.63092" fill="none" stroke="black"/>
<path d="M480.5,376.648v 9.26183" fill="none" stroke="black"/>
<path d="M480.5,376.648v 9.26183" fill="none" stroke="black"/>
<path d="M495.618,381.279v 4.63092" fill="none" stroke="black"/>
<text xml:space="preserve" x="53.0724" y="398.555" fill="black" font-size="12.8916" font-family="Helvetica">0</text>
<text xml:space="preserve" x="113.46" y="398.555" fill="black" font-size="12.8916" font-family="Helvetica">2</text>
<text xml:space="preserve" x="174.557" y="398.555" fill="black" font-size="12.8916" font-family="Helvetica">4</text>
<text xml:space="preserve" x="234.944" y="398.555" fill="black" font-size="12.8916" font-family="Helvetica">6</text>
<text xml:space="preserve" x="295.332" y="398.555" fill="black" font-size="12.8916" font-family="Helvetica">8</text>
<text xml:space="preserve" x="352.167" y="398.555" fill="black" font-size="12.8916" font-family="Helvetica">10</text>
<text xml:space="preserve" x="412.554" y="398.555" fill="black" font-size="12.8916" font-family="Helvetica">12</text>
<text xml:space="preserve" x="472.941" y="398.555" fill="black" font-size="12.8916" font-family="Helvetica">14</text>
<path d="M57.1929,385.91v -347.319" fill="none" stroke="black"/>
<path d="M72.5,385.91h -15.3071" fill="none" stroke="black"/>
<path d="M64.8465,377.48h -7.65354" fill="none" stroke="black"/>
<path d="M64.8465,369.051h -7.65354" fill="none" stroke="black"/>
<path d="M64.8465,360.622h -7.65354" fill="none" stroke="black"/>
<path d="M64.8465,352.192h -7.65354" fill="none" stroke="black"/>
<path d="M72.5,343.763h -15.3071" fill="none" stroke="black"/>
<path d="M64.8465,335.334h -7.65354" fill="none" stroke="black"/>
<path d="M64.8465,326.905h -7.65354" fill="none" stroke="black"/>
<path d="M64.8465,318.475h -7.65354" fill="none" stroke="black"/>
<path d="M64.8465,310.046h -7.65354" fill="none" stroke="black"/>
<path d="M72.5,301.617h -15.3071" fill="none" stroke="black"/>
<path d="M64.8465,293.187h -7.65354" fill="none" stroke="black"/>
<path d="M64.8465,284.758h -7.65354" fill="none" stroke="black"/>
<path d="M64.8465,276.329h -7.65354" fill="none" stroke="black"/>
<path d="M64.8465,267.899h -7.65354" fill="none" stroke="black"/>
<path d="M72.5,259.47h -15.3071" fill="none" stroke="black"/>
<path d="M64.8465,251.041h -7.65354" fill="none" stroke="black"/>
<path d="M64.8465,242.612h -7.65354" fill="none" stroke="black"/>
<path d="M64.8465,234.182h -7.65354" fill="none" stroke="black"/>
<path d="M64.8465,225.753h -7.65354" fill="none" stroke="black"/>
<path d="M72.5,217.324h -15.3071" fill="none" stroke="black"/>
<path d="M64.8465,208.894h -7.65354" fill="none" stroke="black"/>
<path d="M64.8465,200.465h -7.65354" fill="none" stroke="black"/>
<path d="M64.8465,192.036h -7.65354" fill="none" stroke="black"/>
<path d="M64.8465,183.606h -7.65354" fill="none" stroke="black"/>
<path d="M72.5,175.177h -15.3071" fill="none" stroke="black"/>
<path d="M64.8465,166.748h -7.65354" fill="none" stroke="black"/>
<path d="M64.8465,158.319h -7.65354" fill="none" stroke="black"/>
<path d="M64.8465,149.889h -7.65354" fill="none" stroke="black"/>
<path d="M64.8465,141.46h -7.65354" fill="none" stroke="black"/>
<path d="M72.5,133.031h -15.3071" fill="none" stroke="black"/>
<path d="M64.8465,124.601h -7.65354" fill="none" stroke="black"/>
<path d="M64.8465,116.172h -7.65354" fill="none" stroke="black"/>
<path d="M64.8465,107.743h -7.65354" fill="none" stroke="black"/>
<path d="M64.8465,99.3134h -7.65354" fill="none" stroke="black"/>
<path d="M72.5,90.8841h -15.3071" fill="none" stroke="black"/>
<path d="M64.8465,82.4548h -7.65354" fill="none" stroke="black"/>
<path d="M64.8465,74.0255h -7.65354" fill="none" stroke="black"/>
<path d="M64.8465,65.5962h -7.65354" fill="none" stroke="black"/>
<path d="M64.8465,57.1669h -7.65354" fill="none" stroke="black"/>
<path d="M72.5,48.7376h -15.3071" fill="none" stroke="black"/>
<path d="M72.5,48.7376h -15.3071" fill="none" stroke="black"/>
<path d="M64.8465,40.3083h -7.65354" fill="none" stroke="black"/>
<text xml:space="preserve" x="46.6784" y="390.741" fill="black" font-size="12.8916" font-family="Helvetica">0</text>
<text xml:space="preserve" x="18.2609" y="348.114" fill="black" font-size="12.8916" font-family="Helvetica">10000</text>
<text xml:space="preserve" x="18.2609" y="306.199" fill="black" font-size="12.8916" font-family="Helvetica">20000</text>
<text xml:space="preserve" x="18.2609" y="264.283" fill="black" font-size="12.8916" font-family="Helvetica">30000</text>
<text xml:space="preserve" x="18.2609" y="221.657" fill="black" font-size="12.8916" font-family="Helvetica">40000</text>
<text xml:space="preserve" x="18.2609" y="179.741" fill="black" font-size="12.8916" font-family="Helvetica">50000</text>
<text xml:space="preserve" x="18.2609" y="137.825" fill="black" font-size="12.8916" font-family="Helvetica">60000</text>
<text xml:space="preserve" x="18.2609" y="95.1986" fill="black" font-size="12.8916" font-family="Helvetica">70000</text>
<text xml:space="preserve" x="18.2609" y="53.2828" fill="black" font-size="12.8916" font-family="Helvetica">80000</text>
<path d="M57.1929,382.791h 1.69368" fill="none" stroke="black"/>
<path d="M64.5701,382.791h 1.69368" fill="none" stroke="black"/>
<g fill="black">
<circle cx="61.7284" cy="382.791" r="2.84175"/>
</g>
<path d="M66.2638,372.389h 1.69368" fill="none" stroke="black"/>
<path d="M73.641,372.389h 1.69368" fill="none" stroke="black"/>
<g fill="black">
<circle cx="70.7992" cy="372.389" r="2.84175"/>
</g>
<path d="M75.3346,354.637h 1.69368" fill="none" stroke="black"/>
<path d="M82.7118,354.637h 1.69368" fill="none" stroke="black"/>
<g fill="black">
<circle cx="79.8701" cy="354.637" r="2.84175"/>
</g>
<path d="M84.4055,329.787h 1.69368" fill="none" stroke="black"/>
<path d="M91.7827,329.787h 1.69368" fill="none" stroke="black"/>
<g fill="black">
<circle cx="88.9409" cy="329.787" r="2.84175"/>
</g>
<path d="M93.4764,295.257h 1.69368" fill="none" stroke="black"/>
<path d="M100.854,295.257h 1.69368" fill="none" stroke="black"/>
<g fill="black">
<circle cx="98.0118" cy="295.257" r="2.84175"/>
</g>
<path d="M102.547,255.829h 1.69368" fill="none" stroke="black"/>
<path d="M109.924,255.829h 1.69368" fill="none" stroke="black"/>
<g fill="black">
<circle cx="107.083" cy="255.829" r="2.84175"/>
</g>
<path d="M111.618,213.906h 1.69368" fill="none" stroke="black"/>
<path d="M118.995,213.906h 1.69368" fill="none" stroke="black"/>
<g fill="black">
<circle cx="116.154" cy="213.906" r="2.84175"/>
</g>
<path d="M120.689,176.479h 1.69368" fill="none" stroke="black"/>
<path d="M128.066,176.479h 1.69368" fill="none" stroke="black"/>
<g fill="black">
<circle cx="125.224" cy="176.479" r="2.84175"/>
</g>
<path d="M129.76,151.12h 1.69368" fill="none" stroke="black"/>
<path d="M137.137,151.12h 1.69368" fill="none" stroke="black"/>
<g fill="black">
<circle cx="134.295" cy="151.12" r="2.84175"/>
</g>
<path d="M138.831,135.669h 1.69368" fill="none" stroke="black"/>
<path d="M146.208,135.669h 1.69368" fill="none" stroke="black"/>
<g fill="black">
<circle cx="143.366" cy="135.669" r="2.84175"/>
</g>
<path d="M147.902,137.869h 1.69368" fill="none" stroke="black"/>
<path d="M155.279,137.869h 1.69368" fill="none" stroke="black"/>
<g fill="black">
<circle cx="152.437" cy="137.869" r="2.84175"/>
</g>
<path d="M156.972,149.447h 1.69368" fill="none" stroke="black"/>
<path d="M164.35,149.447h 1.69368" fill="none" stroke="black"/>
<g fill="black">
<circle cx="161.508" cy="149.447" r="2.84175"/>
</g>
<path d="M166.043,168.821h 1.69368" fill="none" stroke="black"/>
<path d="M173.42,168.821h 1.69368" fill="none" stroke="black"/>
<g fill="black">
<circle cx="170.579" cy="168.821" r="2.84175"/>
</g>
<path d="M175.114,191.446h 1.69368" fill="none" stroke="black"/>
<path d="M182.491,191.446h 1.69368" fill="none" stroke="black"/>
<g fill="black">
<circle cx="179.65" cy="191.446" r="2.84175"/>
</g>
<path d="M184.185,219.182h 1.69368" fill="none" stroke="black"/>
<path d="M191.562,219.182h 1.69368" fill="none" stroke="black"/>
<g fill="black">
<circle cx="188.72" cy="219.182" r="2.84175"/>
</g>
<path d="M193.256,242.215h 1.69368" fill="none" stroke="black"/>
<path d="M200.633,242.215h 1.69368" fill="none" stroke="black"/>
<g fill="black">
<circle cx="197.791" cy="242.215" r="2.84175"/>
</g>
<path d="M202.327,266.155h 1.69368" fill="none" stroke="black"/>
<path d="M209.704,266.155h 1.69368" fill="none" stroke="black"/>
<g fill="black">
<circle cx="206.862" cy="266.155" r="2.84175"/>
</g>
<path d="M211.398,286.254h 1.69368" fill="none" stroke="black"/>
<path d="M218.775,286.254h 1.69368" fill="none" stroke="black"/>
<g fill="black">
<circle cx="215.933" cy="286.254" r="2.84175"/>
</g>
<path d="M220.469,302.283h 1.69368" fill="none" stroke="black"/>
<path d="M227.846,302.283h 1.69368" fill="none" stroke="black"/>
<g fill="black">
<circle cx="225.004" cy="302.283" r="2.84175"/>
</g>
<path d="M229.539,318.749h 1.69368" fill="none" stroke="black"/>
<path d="M236.917,318.749h 1.69368" fill="none" stroke="black"/>
<g fill="black">
<circle cx="234.075" cy="318.749" r="2.84175"/>
</g>
<path d="M238.61,330.424h 1.69368" fill="none" stroke="black"/>
<path d="M245.987,330.424h 1.69368" fill="none" stroke="black"/>
<g fill="black">
<circle cx="243.146" cy="330.424" r="2.84175"/>
</g>
<path d="M247.681,340.042h 1.69368" fill="none" stroke="black"/>
<path d="M255.058,340.042h 1.69368" fill="none" stroke="black"/>
<g fill="black">
<circle cx="252.217" cy="340.042" r="2.84175"/>
</g>
<path d="M256.752,349.322h 1.69368" fill="none" stroke="black"/>
<path d="M264.129,349.322h 1.69368" fill="none" stroke="black"/>
<g fill="black">
<circle cx="261.287" cy="349.322" r="2.84175"/>
</g>
<path d="M265.823,355.033h 1.69368" fill="none" stroke="black"/>
<path d="M273.2,355.033h 1.69368" fill="none" stroke="black"/>
<g fill="black">
<circle cx="270.358" cy="355.033" r="2.84175"/>
</g>
<path d="M274.894,360.963h 1.69368" fill="none" stroke="black"/>
<path d="M282.271,360.963h 1.69368" fill="none" stroke="black"/>
<g fill="black">
<circle cx="279.429" cy="360.963" r="2.84175"/>
</g>
<path d="M283.965,365.675h 1.69368" fill="none" stroke="black"/>
<path d="M291.342,365.675h 1.69368" fill="none" stroke="black"/>
<g fill="black">
<circle cx="288.5" cy="365.675" r="2.84175"/>
</g>
<path d="M293.035,368.925h 1.69368" fill="none" stroke="black"/>
<path d="M300.413,368.925h 1.69368" fill="none" stroke="black"/>
<g fill="black">
<circle cx="297.571" cy="368.925" r="2.84175"/>
</g>
<path d="M302.106,371.685h 1.69368" fill="none" stroke="black"/>
<path d="M309.483,371.685h 1.69368" fill="none" stroke="black"/>
<g fill="black">
<circle cx="306.642" cy="371.685" r="2.84175"/>
</g>
<path d="M311.177,374.593h 1.69368" fill="none" stroke="black"/>
<path d="M318.554,374.593h 1.69368" fill="none" stroke="black"/>
<g fill="black">
<circle cx="315.713" cy="374.593" r="2.84175"/>
</g>
<path d="M320.248,376.241h 1.69368" fill="none" stroke="black"/>
<path d="M327.625,376.241h 1.69368" fill="none" stroke="black"/>
<g fill="black">
<circle cx="324.783" cy="376.241" r="2.84175"/>
</g>
<path d="M329.319,378.172h 1.69368" fill="none" stroke="black"/>
<path d="M336.696,378.172h 1.69368" fill="none" stroke="black"/>
<g fill="black">
<circle cx="333.854" cy="378.172" r="2.84175"/>
</g>
<path d="M338.39,379.356h 1.69368" fill="none" stroke="black"/>
<path d="M345.767,379.356h 1.69368" fill="none" stroke="black"/>
<g fill="black">
<circle cx="342.925" cy="379.356" r="2.84175"/>
</g>
<path d="M347.461,380.46h 1.69368" fill="none" stroke="black"/>
<path d="M354.838,380.46h 1.69368" fill="none" stroke="black"/>
<g fill="black">
<circle cx="351.996" cy="380.46" r="2.84175"/>
</g>
<path d="M356.531,381.244h 1.69368" fill="none" stroke="black"/>
<path d="M363.909,381.244h 1.69368" fill="none" stroke="black"/>
<g fill="black">
<circle cx="361.067" cy="381.244" r="2.84175"/>
</g>
<path d="M365.602,381.956h 1.69368" fill="none" stroke="black"/>
<path d="M372.98,381.956h 1.69368" fill="none" stroke="black"/>
<g fill="black">
<circle cx="370.138" cy="381.956" r="2.84175"/>
</g>
<path d="M374.673,382.589h 1.69368" fill="none" stroke="black"/>
<path d="M382.05,382.589h 1.69368" fill="none" stroke="black"/>
<g fill="black">
<circle cx="379.209" cy="382.589" r="2.84175"/>
</g>
<path d="M383.744,383.069h 1.69368" fill="none" stroke="black"/>
<path d="M391.121,383.069h 1.69368" fill="none" stroke="black"/>
<g fill="black">
<circle cx="388.28" cy="383.069" r="2.84175"/>
</g>
<path d="M392.815,383.28h 1.69368" fill="none" stroke="black"/>
<path d="M400.192,383.28h 1.69368" fill="none" stroke="black"/>
<g fill="black">
<circle cx="397.35" cy="383.28" r="2.84175"/>
</g>
<path d="M401.886,383.844h 1.69368" fill="none" stroke="black"/>
<path d="M409.263,383.844h 1.69368" fill="none" stroke="black"/>
<g fill="black">
<circle cx="406.421" cy="383.844" r="2.84175"/>
</g>
<path d="M410.957,384.148h 1.69368" fill="none" stroke="black"/>
<path d="M418.334,384.148h 1.69368" fill="none" stroke="black"/>
<g fill="black">
<circle cx="415.492" cy="384.148" r="2.84175"/>
</g>
<path d="M420.028,384.325h 1.69368" fill="none" stroke="black"/>
<path d="M427.405,384.325h 1.69368" fill="none" stroke="black"/>
<g fill="black">
<circle cx="424.563" cy="384.325" r="2.84175"/>
</g>
<path d="M429.098,384.616h 1.69368" fill="none" stroke="black"/>
<path d="M436.476,384.616h 1.69368" fill="none" stroke="black"/>
<g fill="black">
<circle cx="433.634" cy="384.616" r="2.84175"/>
</g>
<path d="M438.169,384.877h 1.69368" fill="none" stroke="black"/>
<path d="M445.546,384.877h 1.69368" fill="none" stroke="black"/>
<g fill="black">
<circle cx="442.705" cy="384.877" r="2.84175"/>
</g>
<path d="M447.24,384.789h 1.69368" fill="none" stroke="black"/>
<path d="M454.617,384.789h 1.69368" fill="none" stroke="black"/>
<g fill="black">
<circle cx="451.776" cy="384.789" r="2.84175"/>
</g>
<path d="M456.311,384.999h 1.69368" fill="none" stroke="black"/>
<path d="M463.688,384.999h 1.69368" fill="none" stroke="black"/>
<g fill="black">
<circle cx="460.846" cy="384.999" r="2.84175"/>
</g>
<path d="M465.382,385.054h 1.69368" fill="none" stroke="black"/>
<path d="M472.759,385.054h 1.69368" fill="none" stroke="black"/>
<g fill="black">
<circle cx="469.917" cy="385.054" r="2.84175"/>
</g>
<path d="M474.453,385.172h 1.69368" fill="none" stroke="black"/>
<path d="M481.83,385.172h 1.69368" fill="none" stroke="black"/>
<g fill="black">
<circle cx="478.988" cy="385.172" r="2.84175"/>
</g>
<path d="M483.524,385.248h 1.69368" fill="none" stroke="black"/>
<path d="M490.901,385.248h 1.69368" fill="none" stroke="black"/>
<g fill="black">
<circle cx="488.059" cy="385.248" r="2.84175"/>
</g>
<path d="M492.594,385.29h 1.69368" fill="none" stroke="black"/>
<path d="M499.972,385.29h 1.69368" fill="none" stroke="black"/>
<g fill="black">
<circle cx="497.13" cy="385.29" r="2.84175"/>
</g>
<path d="M501.665,385.442h 1.69368" fill="none" stroke="black"/>
<path d="M509.043,385.442h 1.69368" fill="none" stroke="black"/>
<g fill="black">
<circle cx="506.201" cy="385.442" r="2.84175"/>
</g>
<rect x="397.35" y="38.591" width="113.386" height="77.1819" fill="white"/>
<path d="M397.35,115.773h 113.386" fill="none" stroke="black"/>
<path d="M510.736,115.773v -77.1819" fill="none" stroke="black"/>
<path d="M510.736,38.591h -113.386" fill="none" stroke="black"/>
<path d="M397.35,38.591v 77.1819" fill="none" stroke="black"/>
<text xml:space="preserve" x="425.342" y="63.2289" fill="black" font-size="13.4074" font-family="Helvetica">D-Y</text>
<path d="M401.602,57.8864h 19.8425" fill="none" stroke="#0000ff"/>
<text xml:space="preserve" x="425.342" y="100.172" fill="black" font-size="13.4074" font-family="Helvetica">Data (2022G)</text>
<g fill="black">
<circle cx="411.524" cy="96.4774" r="2.84175"/>
</g>
<text xml:space="preserve" x="215.763" y="18.4714" fill="black" font-size="17.0516" font-family="Helvetica">HcalTowerIsodr03</text>
<rect x="0.5" y="385.91" width="566.929" height="165.39" fill="white"/>
<rect x="57.1929" y="385.91" width="453.543" height="148.851" fill="white"/>
<rect x="57.1929" y="385.91" width="453.543" height="148.851" fill="none" stroke="black"/>
<rect x="57.1929" y="385.91" width="453.543" height="148.851" fill="white"/>
<rect x="57.1929" y="385.91" width="453.543" height="148.851" fill="none" stroke="black"/>
<path d="M57.1929,527.672h 9.07087v -14.3554h 9.07087v -33.0661h 9.07087v -35.2499h 9.07087v -16.8828h 9.07087v -0.56768h 9.07087v 9.49983h 9.07087v 15.341h 9.07087v 12.6529h 9.07087v 13.6516h 9.07087v 7.47195h 9.07087v 4.86711h 9.07087v 1.93109h
 9.07087v 1.17649h 9.07087v -3.25524h 9.07087v -1.70609h 9.07087v -6.42008h 9.07087v -5.05618h 9.07087v -4.98951h 9.07087v -9.66729h 9.07087v -3.75014h 9.07087v -0.772333h 9.07087v -12.6241h 9.07087v 1.1523h 9.07087v -10.0712h 9.07087v -6.36101h
 9.07087v 2.82707h 9.07087v -1.52157h 9.07087v -9.56393h 9.07087v 2.88426h 9.07087v -4.04109h 9.07087v 4.85277h 9.07087v 1.78236h 9.07087v 1.03686h 9.07087v 1.22207h 9.07087v 0.920087h 9.07087v 12.8596h 9.07087v 12.0564h 9.07087v -5.54211h 9.07087v
 3.65709h 9.07087v 9.52964h 9.07087v 3.90579h 9.07087v -21.8007h 9.07087v 43.6095h 9.07087v 1.19288h 9.07087v 10.0477h 9.07087v 11.6734h 9.07087v 6.49914h 9.07087v 6.8813h 9.07087v -14.7398h 9.07087" fill="none" stroke="#0000ff"/>
<path d="M57.1929,534.76h 453.543" fill="none" stroke="black"/>
<path d="M57.1929,530.791v 3.96936" fill="none" stroke="black"/>
<path d="M72.311,532.776v 1.98468" fill="none" stroke="black"/>
<path d="M87.4291,532.776v 1.98468" fill="none" stroke="black"/>
<path d="M102.547,532.776v 1.98468" fill="none" stroke="black"/>
<path d="M117.665,530.791v 3.96936" fill="none" stroke="black"/>
<path d="M132.783,532.776v 1.98468" fill="none" stroke="black"/>
<path d="M147.902,532.776v 1.98468" fill="none" stroke="black"/>
<path d="M163.02,532.776v 1.98468" fill="none" stroke="black"/>
<path d="M178.138,530.791v 3.96936" fill="none" stroke="black"/>
<path d="M193.256,532.776v 1.98468" fill="none" stroke="black"/>
<path d="M208.374,532.776v 1.98468" fill="none" stroke="black"/>
<path d="M223.492,532.776v 1.98468" fill="none" stroke="black"/>
<path d="M238.61,530.791v 3.96936" fill="none" stroke="black"/>
<path d="M253.728,532.776v 1.98468" fill="none" stroke="black"/>
<path d="M268.846,532.776v 1.98468" fill="none" stroke="black"/>
<path d="M283.965,532.776v 1.98468" fill="none" stroke="black"/>
<path d="M299.083,530.791v 3.96936" fill="none" stroke="black"/>
<path d="M314.201,532.776v 1.98468" fill="none" stroke="black"/>
<path d="M329.319,532.776v 1.98468" fill="none" stroke="black"/>
<path d="M344.437,532.776v 1.98468" fill="none" stroke="black"/>
<path d="M359.555,530.791v 3.96936" fill="none" stroke="black"/>
<path d="M374.673,532.776v 1.98468" fill="none" stroke="black"/>
<path d="M389.791,532.776v 1.98468" fill="none" stroke="black"/>
<path d="M404.909,532.776v 1.98468" fill="none" stroke="black"/>
<path d="M420.028,530.791v 3.96936" fill="none" stroke="black"/>
<path d="M435.146,532.776v 1.98468" fill="none" stroke="black"/>
<path d="M450.264,532.776v 1.98468" fill="none" stroke="black"/>
<path d="M465.382,532.776v 1.98468" fill="none" stroke="black"/>
<path d="M480.5,530.791v 3.96936" fill="none" stroke="black"/>
<path d="M480.5,530.791v 3.96936" fill="none" stroke="black"/>
<path d="M495.618,532.776v 1.98468" fill="none" stroke="black"/>
<text xml:space="preserve" x="54.4933" y="539.932" fill="black" font-size="5.81068" font-family="Helvetica">0</text>
<text xml:space="preserve" x="114.88" y="539.932" fill="black" font-size="5.81068" font-family="Helvetica">2</text>
<text xml:space="preserve" x="175.978" y="539.932" fill="black" font-size="5.81068" font-family="Helvetica">4</text>
<text xml:space="preserve" x="236.365" y="539.932" fill="black" font-size="5.81068" font-family="Helvetica">6</text>
<text xml:space="preserve" x="296.752" y="539.932" fill="black" font-size="5.81068" font-family="Helvetica">8</text>
<text xml:space="preserve" x="355.719" y="539.932" fill="black" font-size="5.81068" font-family="Helvetica">10</text>
<text xml:space="preserve" x="416.106" y="539.932" fill="black" font-size="5.81068" font-family="Helvetica">12</text>
<text xml:space="preserve" x="476.493" y="539.932" fill="black" font-size="5.81068" font-family="Helvetica">14</text>
<path d="M57.1929,534.76v -148.851" fill="none" stroke="black"/>
<path d="M72.5,530.844h -15.3071" fill="none" stroke="black"/>
<path d="M64.8465,524.805h -7.65354" fill="none" stroke="black"/>
<path d="M64.8465,518.766h -7.65354" fill="none" stroke="black"/>
<path d="M64.8465,512.727h -7.65354" fill="none" stroke="black"/>
<path d="M72.5,506.688h -15.3071" fill="none" stroke="black"/>
<path d="M64.8465,500.649h -7.65354" fill="none" stroke="black"/>
<path d="M64.8465,494.61h -7.65354" fill="none" stroke="black"/>
<path d="M64.8465,488.571h -7.65354" fill="none" stroke="black"/>
<path d="M72.5,482.532h -15.3071" fill="none" stroke="black"/>
<path d="M64.8465,476.493h -7.65354" fill="none" stroke="black"/>
<path d="M64.8465,470.455h -7.65354" fill="none" stroke="black"/>
<path d="M64.8465,464.416h -7.65354" fill="none" stroke="black"/>
<path d="M72.5,458.377h -15.3071" fill="none" stroke="black"/>
<path d="M64.8465,452.338h -7.65354" fill="none" stroke="black"/>
<path d="M64.8465,446.299h -7.65354" fill="none" stroke="black"/>
<path d="M64.8465,440.26h -7.65354" fill="none" stroke="black"/>
<path d="M72.5,434.221h -15.3071" fill="none" stroke="black"/>
<path d="M64.8465,428.182h -7.65354" fill="none" stroke="black"/>
<path d="M64.8465,422.143h -7.65354" fill="none" stroke="black"/>
<path d="M64.8465,416.104h -7.65354" fill="none" stroke="black"/>
<path d="M72.5,410.065h -15.3071" fill="none" stroke="black"/>
<path d="M64.8465,404.026h -7.65354" fill="none" stroke="black"/>
<path d="M64.8465,397.988h -7.65354" fill="none" stroke="black"/>
<path d="M64.8465,391.949h -7.65354" fill="none" stroke="black"/>
<path d="M72.5,385.91h -15.3071" fill="none" stroke="black"/>
<path d="M72.5,530.844h -15.3071" fill="none" stroke="black"/>
<text xml:space="preserve" x="45.968" y="532.828" fill="black" font-size="5.81068" font-family="Helvetica">0.8</text>
<text xml:space="preserve" x="51.6515" y="509.384" fill="black" font-size="5.81068" font-family="Helvetica">1</text>
<text xml:space="preserve" x="45.968" y="485.229" fill="black" font-size="5.81068" font-family="Helvetica">1.2</text>
<text xml:space="preserve" x="45.968" y="461.074" fill="black" font-size="5.81068" font-family="Helvetica">1.4</text>
<text xml:space="preserve" x="45.968" y="436.209" fill="black" font-size="5.81068" font-family="Helvetica">1.6</text>
<text xml:space="preserve" x="45.968" y="412.054" fill="black" font-size="5.81068" font-family="Helvetica">1.8</text>
<text xml:space="preserve" x="50.2306" y="388.609" fill="black" font-size="5.81068" font-family="Helvetica">2</text>
<path d="M57.1929,506.688h 453.543" fill="none" stroke="black" stroke-dasharray=" 3, 3"/>
<path d="M61.7284,511.128v -1.59815" fill="none" stroke="black"/>
<path d="M61.7284,503.846v -1.59815" fill="none" stroke="black"/>
<path d="M57.1929,506.688h 1.69368" fill="none" stroke="black"/>
<path d="M64.5701,506.688h 1.69368" fill="none" stroke="black"/>
<g fill="black">
<circle cx="61.7284" cy="506.688" r="2.84175"/>
</g>
<path d="M66.2638,506.688h 1.69368" fill="none" stroke="black"/>
<path d="M73.641,506.688h 1.69368" fill="none" stroke="black"/>
<g fill="black">
<circle cx="70.7992" cy="506.688" r="2.84175"/>
</g>
<path d="M75.3346,506.688h 1.69368" fill="none" stroke="black"/>
<path d="M82.7118,506.688h 1.69368" fill="none" stroke="black"/>
<g fill="black">
<circle cx="79.8701" cy="506.688" r="2.84175"/>
</g>
<path d="M84.4055,506.688h 1.69368" fill="none" stroke="black"/>
<path d="M91.7827,506.688h 1.69368" fill="none" stroke="black"/>
<g fill="black">
<circle cx="88.9409" cy="506.688" r="2.84175"/>
</g>
<path d="M93.4764,506.688h 1.69368" fill="none" stroke="black"/>
<path d="M100.854,506.688h 1.69368" fill="none" stroke="black"/>
<g fill="black">
<circle cx="98.0118" cy="506.688" r="2.84175"/>
</g>
<path d="M102.547,506.688h 1.69368" fill="none" stroke="black"/>
<path d="M109.924,506.688h 1.69368" fill="none" stroke="black"/>
<g fill="black">
<circle cx="107.083" cy="506.688" r="2.84175"/>
</g>
<path d="M111.618,506.688h 1.69368" fill="none" stroke="black"/>
<path d="M118.995,506.688h 1.69368" fill="none" stroke="black"/>
<g fill="black">
<circle cx="116.154" cy="506.688" r="2.84175"/>
</g>
<path d="M120.689,506.688h 1.69368" fill="none" stroke="black"/>
<path d="M128.066,506.688h 1.69368" fill="none" stroke="black"/>
<g fill="black">
<circle cx="125.224" cy="506.688" r="2.84175"/>
</g>
<path d="M129.76,506.688h 1.69368" fill="none" stroke="black"/>
<path d="M137.137,506.688h 1.69368" fill="none" stroke="black"/>
<g fill="black">
<circle cx="134.295" cy="506.688" r="2.84175"/>
</g>
<path d="M138.831,506.688h 1.69368" fill="none" stroke="black"/>
<path d="M146.208,506.688h 1.69368" fill="none" stroke="black"/>
<g fill="black">
<circle cx="143.366" cy="506.688" r="2.84175"/>
</g>
<path d="M147.902,506.688h 1.69368" fill="none" stroke="black"/>
<path d="M155.279,506.688h 1.69368" fill="none" stroke="black"/>
<g fill="black">
<circle cx="152.437" cy="506.688" r="2.84175"/>
</g>
<path d="M156.972,506.688h 1.69368" fill="none" stroke="black"/>
<path d="M164.35,506.688h 1.69368" fill="none" stroke="black"/>
<g fill="black">
<circle cx="161.508" cy="506.688" r="2.84175"/>
</g>
<path d="M166.043,506.688h 1.69368" fill="none" stroke="black"/>
<path d="M173.42,506.688h 1.69368" fill="none" stroke="black"/>
<g fill="black">
<circle cx="170.579" cy="506.688" r="2.84175"/>
</g>
<path d="M175.114,506.688h 1.69368" fill="none" stroke="black"/>
<path d="M182.491,506.688h 1.69368" fill="none" stroke="black"/>
<g fill="black">
<circle cx="179.65" cy="506.688" r="2.84175"/>
</g>
<path d="M184.185,506.688h 1.69368" fill="none" stroke="black"/>
<path d="M191.562,506.688h 1.69368" fill="none" stroke="black"/>
<g fill="black">
<circle cx="188.72" cy="506.688" r="2.84175"/>
</g>
<path d="M193.256,506.688h 1.69368" fill="none" stroke="black"/>
<path d="M200.633,506.688h 1.69368" fill="none" stroke="black"/>
<g fill="black">
<circle cx="197.791" cy="506.688" r="2.84175"/>
</g>
<path d="M202.327,506.688h 1.69368" fill="none" stroke="black"/>
<path d="M209.704,506.688h 1.69368" fill="none" stroke="black"/>
<g fill="black">
<circle cx="206.862" cy="506.688" r="2.84175"/>
</g>
<path d="M211.398,506.688h 1.69368" fill="none" stroke="black"/>
<path d="M218.775,506.688h 1.69368" fill="none" stroke="black"/>
<g fill="black">
<circle cx="215.933" cy="506.688" r="2.84175"/>
</g>
<path d="M220.469,506.688h 1.69368" fill="none" stroke="black"/>
<path d="M227.846,506.688h 1.69368" fill="none" stroke="black"/>
<g fill="black">
<circle cx="225.004" cy="506.688" r="2.84175"/>
</g>
<path d="M229.539,506.688h 1.69368" fill="none" stroke="black"/>
<path d="M236.917,506.688h 1.69368" fill="none" stroke="black"/>
<g fill="black">
<circle cx="234.075" cy="506.688" r="2.84175"/>
</g>
<path d="M238.61,506.688h 1.69368" fill="none" stroke="black"/>
<path d="M245.987,506.688h 1.69368" fill="none" stroke="black"/>
<g fill="black">
<circle cx="243.146" cy="506.688" r="2.84175"/>
</g>
<path d="M247.681,506.688h 1.69368" fill="none" stroke="black"/>
<path d="M255.058,506.688h 1.69368" fill="none" stroke="black"/>
<g fill="black">
<circle cx="252.217" cy="506.688" r="2.84175"/>
</g>
<path d="M256.752,506.688h 1.69368" fill="none" stroke="black"/>
<path d="M264.129,506.688h 1.69368" fill="none" stroke="black"/>
<g fill="black">
<circle cx="261.287" cy="506.688" r="2.84175"/>
</g>
<path d="M265.823,506.688h 1.69368" fill="none" stroke="black"/>
<path d="M273.2,506.688h 1.69368" fill="none" stroke="black"/>
<g fill="black">
<circle cx="270.358" cy="506.688" r="2.84175"/>
</g>
<path d="M274.894,506.688h 1.69368" fill="none" stroke="black"/>
<path d="M282.271,506.688h 1.69368" fill="none" stroke="black"/>
<g fill="black">
<circle cx="279.429" cy="506.688" r="2.84175"/>
</g>
<path d="M283.965,506.688h 1.69368" fill="none" stroke="black"/>
<path d="M291.342,506.688h 1.69368" fill="none" stroke="black"/>
<g fill="black">
<circle cx="288.5" cy="506.688" r="2.84175"/>
</g>
<path d="M293.035,506.688h 1.69368" fill="none" stroke="black"/>
<path d="M300.413,506.688h 1.69368" fill="none" stroke="black"/>
<g fill="black">
<circle cx="297.571" cy="506.688" r="2.84175"/>
</g>
<path d="M302.106,506.688h 1.69368" fill="none" stroke="black"/>
<path d="M309.483,506.688h 1.69368" fill="none" stroke="black"/>
<g fill="black">
<circle cx="306.642" cy="506.688" r="2.84175"/>
</g>
<path d="M311.177,506.688h 1.69368" fill="none" stroke="black"/>
<path d="M318.554,506.688h 1.69368" fill="none" stroke="black"/>
<g fill="black">
<circle cx="315.713" cy="506.688" r="2.84175"/>
</g>
<path d="M320.248,506.688h 1.69368" fill="none" stroke="black"/>
<path d="M327.625,506.688h 1.69368" fill="none" stroke="black"/>
<g fill="black">
<circle cx="324.783" cy="506.688" r="2.84175"/>
</g>
<path d="M329.319,506.688h 1.69368" fill="none" stroke="black"/>
<path d="M336.696,506.688h 1.69368" fill="none" stroke="black"/>
<g fill="black">
<circle cx="333.854" cy="506.688" r="2.84175"/>
</g>
<path d="M342.925,509.751v -0.22109" fill="none" stroke="black"/>
<path d="M342.925,503.846v -0.22109" fill="none" stroke="black"/>
<path d="M338.39,506.688h 1.69368" fill="none" stroke="black"/>
<path d="M345.767,506.688h 1.69368" fill="none" stroke="black"/>
<g fill="black">
<circle cx="342.925" cy="506.688" r="2.84175"/>
</g>
<path d="M351.996,510.047v -0.517097" fill="none" stroke="black"/>
<path d="M351.996,503.846v -0.517097" fill="none" stroke="black"/>
<path d="M347.461,506.688h 1.69368" fill="none" stroke="black"/>
<path d="M354.838,506.688h 1.69368" fill="none" stroke="black"/>
<g fill="black">
<circle cx="351.996" cy="506.688" r="2.84175"/>
</g>
<path d="M361.067,510.318v -0.788326" fill="none" stroke="black"/>
<path d="M361.067,503.846v -0.788326" fill="none" stroke="black"/>
<path d="M356.531,506.688h 1.69368" fill="none" stroke="black"/>
<path d="M363.909,506.688h 1.69368" fill="none" stroke="black"/>
<g fill="black">
<circle cx="361.067" cy="506.688" r="2.84175"/>
</g>
<path d="M370.138,510.632v -1.10181" fill="none" stroke="black"/>
<path d="M370.138,503.846v -1.10181" fill="none" stroke="black"/>
<path d="M365.602,506.688h 1.69368" fill="none" stroke="black"/>
<path d="M372.98,506.688h 1.69368" fill="none" stroke="black"/>
<g fill="black">
<circle cx="370.138" cy="506.688" r="2.84175"/>
</g>
<path d="M379.209,510.991v -1.4608" fill="none" stroke="black"/>
<path d="M379.209,503.846v -1.4608" fill="none" stroke="black"/>
<path d="M374.673,506.688h 1.69368" fill="none" stroke="black"/>
<path d="M382.05,506.688h 1.69368" fill="none" stroke="black"/>
<g fill="black">
<circle cx="379.209" cy="506.688" r="2.84175"/>
</g>
<path d="M388.28,511.34v -1.81046" fill="none" stroke="black"/>
<path d="M388.28,503.846v -1.81046" fill="none" stroke="black"/>
<path d="M383.744,506.688h 1.69368" fill="none" stroke="black"/>
<path d="M391.121,506.688h 1.69368" fill="none" stroke="black"/>
<g fill="black">
<circle cx="388.28" cy="506.688" r="2.84175"/>
</g>
<path d="M397.35,511.523v -1.99326" fill="none" stroke="black"/>
<path d="M397.35,503.846v -1.99326" fill="none" stroke="black"/>
<path d="M392.815,506.688h 1.69368" fill="none" stroke="black"/>
<path d="M400.192,506.688h 1.69368" fill="none" stroke="black"/>
<g fill="black">
<circle cx="397.35" cy="506.688" r="2.84175"/>
</g>
<path d="M406.421,512.144v -2.61446" fill="none" stroke="black"/>
<path d="M406.421,503.846v -2.61446" fill="none" stroke="black"/>
<path d="M401.886,506.688h 1.69368" fill="none" stroke="black"/>
<path d="M409.263,506.688h 1.69368" fill="none" stroke="black"/>
<g fill="black">
<circle cx="406.421" cy="506.688" r="2.84175"/>
</g>
<path d="M415.492,512.596v -3.06572" fill="none" stroke="black"/>
<path d="M415.492,503.846v -3.06572" fill="none" stroke="black"/>
<path d="M410.957,506.688h 1.69368" fill="none" stroke="black"/>
<path d="M418.334,506.688h 1.69368" fill="none" stroke="black"/>
<g fill="black">
<circle cx="415.492" cy="506.688" r="2.84175"/>
</g>
<path d="M424.563,512.917v -3.38692" fill="none" stroke="black"/>
<path d="M424.563,503.846v -3.38692" fill="none" stroke="black"/>
<path d="M420.028,506.688h 1.69368" fill="none" stroke="black"/>
<path d="M427.405,506.688h 1.69368" fill="none" stroke="black"/>
<g fill="black">
<circle cx="424.563" cy="506.688" r="2.84175"/>
</g>
<path d="M433.634,513.581v -4.05144" fill="none" stroke="black"/>
<path d="M433.634,503.846v -4.05144" fill="none" stroke="black"/>
<path d="M429.098,506.688h 1.69368" fill="none" stroke="black"/>
<path d="M436.476,506.688h 1.69368" fill="none" stroke="black"/>
<g fill="black">
<circle cx="433.634" cy="506.688" r="2.84175"/>
</g>
<path d="M442.705,514.404v -4.8745" fill="none" stroke="black"/>
<path d="M442.705,503.846v -4.8745" fill="none" stroke="black"/>
<path d="M438.169,506.688h 1.69368" fill="none" stroke="black"/>
<path d="M445.546,506.688h 1.69368" fill="none" stroke="black"/>
<g fill="black">
<circle cx="442.705" cy="506.688" r="2.84175"/>
</g>
<path d="M451.776,514.094v -4.56365" fill="none" stroke="black"/>
<path d="M451.776,503.846v -4.56365" fill="none" stroke="black"/>
<path d="M447.24,506.688h 1.69368" fill="none" stroke="black"/>
<path d="M454.617,506.688h 1.69368" fill="none" stroke="black"/>
<g fill="black">
<circle cx="451.776" cy="506.688" r="2.84175"/>
</g>
<path d="M460.846,514.906v -5.37618" fill="none" stroke="black"/>
<path d="M460.846,503.846v -5.37618" fill="none" stroke="black"/>
<path d="M456.311,506.688h 1.69368" fill="none" stroke="black"/>
<path d="M463.688,506.688h 1.69368" fill="none" stroke="black"/>
<g fill="black">
<circle cx="460.846" cy="506.688" r="2.84175"/>
</g>
<path d="M469.917,515.165v -5.63524" fill="none" stroke="black"/>
<path d="M469.917,503.846v -5.63524" fill="none" stroke="black"/>
<path d="M465.382,506.688h 1.69368" fill="none" stroke="black"/>
<path d="M472.759,506.688h 1.69368" fill="none" stroke="black"/>
<g fill="black">
<circle cx="469.917" cy="506.688" r="2.84175"/>
</g>
<path d="M478.988,515.818v -6.28824" fill="none" stroke="black"/>
<path d="M478.988,503.846v -6.28824" fill="none" stroke="black"/>
<path d="M474.453,506.688h 1.69368" fill="none" stroke="black"/>
<path d="M481.83,506.688h 1.69368" fill="none" stroke="black"/>
<g fill="black">
<circle cx="478.988" cy="506.688" r="2.84175"/>
</g>
<path d="M488.059,516.327v -6.79742" fill="none" stroke="black"/>
<path d="M488.059,503.846v -6.79742" fill="none" stroke="black"/>
<path d="M483.524,506.688h 1.69368" fill="none" stroke="black"/>
<path d="M490.901,506.688h 1.69368" fill="none" stroke="black"/>
<g fill="black">
<circle cx="488.059" cy="506.688" r="2.84175"/>
</g>
<path d="M497.13,516.65v -7.11989" fill="none" stroke="black"/>
<path d="M497.13,503.846v -7.11989" fill="none" stroke="black"/>
<path d="M492.594,506.688h 1.69368" fill="none" stroke="black"/>
<path d="M499.972,506.688h 1.69368" fill="none" stroke="black"/>
<g fill="black">
<circle cx="497.13" cy="506.688" r="2.84175"/>
</g>
<path d="M506.201,518.152v -8.62203" fill="none" stroke="black"/>
<path d="M506.201,503.846v -8.62203" fill="none" stroke="black"/>
<path d="M501.665,506.688h 1.69368" fill="none" stroke="black"/>
<path d="M509.043,506.688h 1.69368" fill="none" stroke="black"/>
<g fill="black">
<circle cx="506.201" cy="506.688" r="2.84175"/>
</g>
<text xml:space="preserve" x="269.756" y="393.582" fill="black" font-size="7.59356" font-family="Helvetica">MC/Data</text></svg>
